<mxfile host="app.diagrams.net" modified="2023-12-10T08:14:59.375Z" agent="Mozilla/5.0 (Macintosh; Intel Mac OS X 10_15_7) AppleWebKit/605.1.15 (KHTML, like Gecko) Version/17.1 Safari/605.1.15" etag="t5R6GHi2G8unJVZmPX4q" version="22.1.7" type="github">
  <diagram name="Page-1" id="Ytdvc4sDia0L2YPKh5zA">
    <mxGraphModel dx="2093" dy="1002" grid="1" gridSize="10" guides="1" tooltips="1" connect="1" arrows="1" fold="1" page="1" pageScale="1" pageWidth="827" pageHeight="1169" math="0" shadow="0">
      <root>
        <mxCell id="0" />
        <mxCell id="1" parent="0" />
        <mxCell id="6vR4dQL-GC3axhAhHZct-1" value="" style="html=1;overflow=block;blockSpacing=1;whiteSpace=wrap;container=1;pointerEvents=0;collapsible=0;recursiveResize=0;fontSize=16.7;fontColor=#3a414a;spacing=0;strokeColor=#3a414a;strokeOpacity=100;fillOpacity=0;rounded=1;absoluteArcSize=1;arcSize=9;fillColor=#000000;strokeWidth=0.8;lucidId=C6mC9e5NIt-3;" parent="1" vertex="1">
          <mxGeometry x="240" y="60" width="780" height="720" as="geometry" />
        </mxCell>
        <mxCell id="6vR4dQL-GC3axhAhHZct-6" value="Verify Credentials" style="html=1;overflow=block;blockSpacing=1;whiteSpace=wrap;ellipse;fontSize=13;spacing=3.8;strokeColor=#3a414a;strokeOpacity=100;rounded=1;absoluteArcSize=1;arcSize=9;strokeWidth=0.8;lucidId=j~mCf1Tzr66w;" parent="6vR4dQL-GC3axhAhHZct-1" vertex="1">
          <mxGeometry x="338" y="470" width="120" height="90" as="geometry" />
        </mxCell>
        <mxCell id="6vR4dQL-GC3axhAhHZct-12" value="Add account to database" style="html=1;overflow=block;blockSpacing=1;whiteSpace=wrap;ellipse;fontSize=13;spacing=3.8;strokeColor=#3a414a;strokeOpacity=100;rounded=1;absoluteArcSize=1;arcSize=9;strokeWidth=0.8;lucidId=IbnCg7UF-l9G;" parent="6vR4dQL-GC3axhAhHZct-1" vertex="1">
          <mxGeometry x="135" y="598" width="120" height="90" as="geometry" />
        </mxCell>
        <mxCell id="6vR4dQL-GC3axhAhHZct-25" value="Credentials are verified and access is granted" style="html=1;overflow=block;blockSpacing=1;whiteSpace=wrap;fontSize=16.7;fontColor=#3a414a;spacing=3.8;strokeColor=#3a414a;strokeOpacity=100;fillOpacity=0;rounded=1;absoluteArcSize=1;arcSize=9;fillColor=#000000;dashed=1;fixDash=1;dashPattern=6 5;strokeWidth=0.8;lucidId=aknCfjZeRp22;" parent="6vR4dQL-GC3axhAhHZct-1" vertex="1">
          <mxGeometry x="30" y="490" width="98" height="88" as="geometry" />
        </mxCell>
        <mxCell id="6vR4dQL-GC3axhAhHZct-4" value="Create Account" style="html=1;overflow=block;blockSpacing=1;whiteSpace=wrap;ellipse;fontSize=13;spacing=3.8;strokeColor=#3a414a;strokeOpacity=100;rounded=1;absoluteArcSize=1;arcSize=9;strokeWidth=0.8;lucidId=46mCivR2fwsK;" parent="6vR4dQL-GC3axhAhHZct-1" vertex="1">
          <mxGeometry x="135" y="375" width="120" height="90" as="geometry" />
        </mxCell>
        <mxCell id="6vR4dQL-GC3axhAhHZct-7" value="" style="html=1;jettySize=18;whiteSpace=wrap;fontSize=13;strokeColor=#3a414a;strokeOpacity=100;dashed=1;fixDash=1;dashPattern=6 5;strokeWidth=0.8;rounded=0;startArrow=none;endArrow=block;endFill=1;exitX=1.003;exitY=0.5;exitPerimeter=0;entryX=-0.003;entryY=0.5;entryPerimeter=0;lucidId=L~mCyPB0vYqP;" parent="6vR4dQL-GC3axhAhHZct-1" source="6vR4dQL-GC3axhAhHZct-4" target="6vR4dQL-GC3axhAhHZct-6" edge="1">
          <mxGeometry width="100" height="100" relative="1" as="geometry">
            <Array as="points" />
          </mxGeometry>
        </mxCell>
        <mxCell id="6vR4dQL-GC3axhAhHZct-8" value="&amp;lt;&amp;lt;include&amp;gt;&amp;gt;" style="text;html=1;resizable=0;labelBackgroundColor=default;align=center;verticalAlign=middle;fontStyle=1;fontColor=#333333;fontSize=10;" parent="6vR4dQL-GC3axhAhHZct-7" vertex="1">
          <mxGeometry relative="1" as="geometry" />
        </mxCell>
        <mxCell id="6vR4dQL-GC3axhAhHZct-13" value="" style="html=1;jettySize=18;whiteSpace=wrap;fontSize=13;strokeColor=#3a414a;strokeOpacity=100;dashed=1;fixDash=1;dashPattern=6 5;strokeWidth=0.8;rounded=0;startArrow=block;startFill=1;endArrow=none;exitX=0.5;exitY=1.004;exitPerimeter=0;entryX=0.5;entryY=-0.004;entryPerimeter=0;lucidId=VbnCiAbkZU~H;" parent="6vR4dQL-GC3axhAhHZct-1" source="6vR4dQL-GC3axhAhHZct-4" target="6vR4dQL-GC3axhAhHZct-12" edge="1">
          <mxGeometry width="100" height="100" relative="1" as="geometry">
            <Array as="points" />
          </mxGeometry>
        </mxCell>
        <mxCell id="6vR4dQL-GC3axhAhHZct-14" value="&amp;lt;&amp;lt;extend&amp;gt;&amp;gt;" style="text;html=1;resizable=0;labelBackgroundColor=default;align=center;verticalAlign=middle;fontStyle=1;fontColor=#333333;fontSize=10;" parent="6vR4dQL-GC3axhAhHZct-13" vertex="1">
          <mxGeometry relative="1" as="geometry" />
        </mxCell>
        <mxCell id="6vR4dQL-GC3axhAhHZct-15" value="Invalid Credentials message displayed" style="html=1;overflow=block;blockSpacing=1;whiteSpace=wrap;ellipse;fontSize=13;spacing=3.8;strokeColor=#3a414a;strokeOpacity=100;rounded=1;absoluteArcSize=1;arcSize=9;strokeWidth=0.8;lucidId=2cnCjqfVAo9T;" parent="6vR4dQL-GC3axhAhHZct-1" vertex="1">
          <mxGeometry x="580" y="470" width="120" height="90" as="geometry" />
        </mxCell>
        <mxCell id="6vR4dQL-GC3axhAhHZct-16" value="" style="html=1;jettySize=18;whiteSpace=wrap;fontSize=13;strokeColor=#3a414a;strokeOpacity=100;dashed=1;fixDash=1;dashPattern=6 5;strokeWidth=0.8;rounded=0;startArrow=block;startFill=1;endArrow=none;exitX=1.003;exitY=0.5;exitPerimeter=0;entryX=-0.003;entryY=0.5;entryPerimeter=0;lucidId=venC4A-9usjn;" parent="6vR4dQL-GC3axhAhHZct-1" source="6vR4dQL-GC3axhAhHZct-6" target="6vR4dQL-GC3axhAhHZct-15" edge="1">
          <mxGeometry width="100" height="100" relative="1" as="geometry">
            <Array as="points" />
          </mxGeometry>
        </mxCell>
        <mxCell id="6vR4dQL-GC3axhAhHZct-17" value="&amp;lt;&amp;lt;extend&amp;gt;&amp;gt;" style="text;html=1;resizable=0;labelBackgroundColor=default;align=center;verticalAlign=middle;fontStyle=1;fontColor=#333333;fontSize=10;" parent="6vR4dQL-GC3axhAhHZct-16" vertex="1">
          <mxGeometry x="0.13719560135283215" relative="1" as="geometry" />
        </mxCell>
        <mxCell id="6vR4dQL-GC3axhAhHZct-18" value="Credentials are taken or not valid" style="html=1;overflow=block;blockSpacing=1;whiteSpace=wrap;fontSize=16.7;fontColor=#3a414a;spacing=3.8;strokeColor=#3a414a;strokeOpacity=100;fillOpacity=0;rounded=1;absoluteArcSize=1;arcSize=9;fillColor=#000000;dashed=1;fixDash=1;dashPattern=6 5;strokeWidth=0.8;lucidId=-enCEf3ejthg;" parent="6vR4dQL-GC3axhAhHZct-1" vertex="1">
          <mxGeometry x="480" y="380" width="98" height="75" as="geometry" />
        </mxCell>
        <mxCell id="6vR4dQL-GC3axhAhHZct-19" value="" style="html=1;jettySize=18;whiteSpace=wrap;fontSize=13;strokeColor=#3a414a;strokeOpacity=100;dashed=1;fixDash=1;dashPattern=6 5;strokeWidth=0.8;rounded=0;startArrow=none;endArrow=none;exitX=0.5;exitY=1.005;exitPerimeter=0;lucidId=JgnC6-sNVd.s;entryX=0;entryY=0;entryDx=0;entryDy=0;" parent="6vR4dQL-GC3axhAhHZct-1" source="6vR4dQL-GC3axhAhHZct-18" target="6vR4dQL-GC3axhAhHZct-17" edge="1">
          <mxGeometry width="100" height="100" relative="1" as="geometry">
            <Array as="points" />
            <mxPoint x="510" y="195" as="targetPoint" />
          </mxGeometry>
        </mxCell>
        <mxCell id="6vR4dQL-GC3axhAhHZct-50" value="Log In" style="html=1;overflow=block;blockSpacing=1;whiteSpace=wrap;ellipse;fontSize=13;spacing=3.8;strokeColor=#3a414a;strokeOpacity=100;rounded=1;absoluteArcSize=1;arcSize=9;strokeWidth=0.8;lucidId=1TnCeRcBgIai;" parent="6vR4dQL-GC3axhAhHZct-1" vertex="1">
          <mxGeometry x="135" y="163" width="120" height="90" as="geometry" />
        </mxCell>
        <mxCell id="6vR4dQL-GC3axhAhHZct-51" value="Invalid credentials message displayed" style="html=1;overflow=block;blockSpacing=1;whiteSpace=wrap;ellipse;fontSize=13;spacing=3.8;strokeColor=#3a414a;strokeOpacity=100;rounded=1;absoluteArcSize=1;arcSize=9;strokeWidth=0.8;lucidId=mUnCxv-QGtzJ;" parent="6vR4dQL-GC3axhAhHZct-1" vertex="1">
          <mxGeometry x="589" y="40" width="120" height="90" as="geometry" />
        </mxCell>
        <mxCell id="6vR4dQL-GC3axhAhHZct-52" value="" style="html=1;jettySize=18;whiteSpace=wrap;fontSize=13;strokeColor=#3a414a;strokeOpacity=100;dashed=1;fixDash=1;dashPattern=6 5;strokeWidth=0.8;rounded=0;startArrow=block;startFill=1;endArrow=none;entryX=-0.003;entryY=0.5;entryPerimeter=0;lucidId=pUnCNJh5Bu_f;exitX=1;exitY=0.5;exitDx=0;exitDy=0;" parent="6vR4dQL-GC3axhAhHZct-1" source="q0sa2IvHLagkZVXANvXT-25" target="6vR4dQL-GC3axhAhHZct-51" edge="1">
          <mxGeometry width="100" height="100" relative="1" as="geometry">
            <Array as="points" />
            <mxPoint x="440" y="170" as="sourcePoint" />
          </mxGeometry>
        </mxCell>
        <mxCell id="6vR4dQL-GC3axhAhHZct-53" value="&amp;lt;&amp;lt;extend&amp;gt;&amp;gt;" style="text;html=1;resizable=0;labelBackgroundColor=default;align=center;verticalAlign=middle;fontStyle=1;fontColor=#333333;fontSize=10;" parent="6vR4dQL-GC3axhAhHZct-52" vertex="1">
          <mxGeometry x="0.20811139375771104" relative="1" as="geometry" />
        </mxCell>
        <mxCell id="6vR4dQL-GC3axhAhHZct-54" value="Credentials do not match the database of current users" style="html=1;overflow=block;blockSpacing=1;whiteSpace=wrap;fontSize=16.7;fontColor=#3a414a;spacing=3.8;strokeColor=#3a414a;strokeOpacity=100;fillOpacity=0;rounded=1;absoluteArcSize=1;arcSize=9;fillColor=#000000;dashed=1;fixDash=1;dashPattern=6 5;strokeWidth=0.8;lucidId=3UnC29L0p1P6;" parent="6vR4dQL-GC3axhAhHZct-1" vertex="1">
          <mxGeometry x="320" y="40" width="120" height="90" as="geometry" />
        </mxCell>
        <mxCell id="6vR4dQL-GC3axhAhHZct-55" value="" style="html=1;jettySize=18;whiteSpace=wrap;fontSize=13;strokeColor=#3a414a;strokeOpacity=100;dashed=1;fixDash=1;dashPattern=6 5;strokeWidth=0.8;rounded=0;startArrow=none;endArrow=none;exitX=1;exitY=0.5;lucidId=wVnC6unMUMuJ;entryX=0;entryY=0;entryDx=0;entryDy=0;exitDx=0;exitDy=0;" parent="6vR4dQL-GC3axhAhHZct-1" source="6vR4dQL-GC3axhAhHZct-54" target="6vR4dQL-GC3axhAhHZct-53" edge="1">
          <mxGeometry width="100" height="100" relative="1" as="geometry">
            <Array as="points" />
            <mxPoint x="320" y="190" as="targetPoint" />
          </mxGeometry>
        </mxCell>
        <mxCell id="6vR4dQL-GC3axhAhHZct-56" value="Log in successful message displayed" style="html=1;overflow=block;blockSpacing=1;whiteSpace=wrap;ellipse;fontSize=13;spacing=3.8;strokeColor=#3a414a;strokeOpacity=100;rounded=1;absoluteArcSize=1;arcSize=9;strokeWidth=0.8;lucidId=MVnCm_vyAcN7;" parent="6vR4dQL-GC3axhAhHZct-1" vertex="1">
          <mxGeometry x="600" y="180" width="120" height="90" as="geometry" />
        </mxCell>
        <mxCell id="6vR4dQL-GC3axhAhHZct-57" value="" style="html=1;jettySize=18;whiteSpace=wrap;fontSize=13;strokeColor=#3a414a;strokeOpacity=100;dashed=1;fixDash=1;dashPattern=6 5;strokeWidth=0.8;rounded=0;startArrow=none;endArrow=block;endFill=1;exitX=-0.003;exitY=0.5;exitPerimeter=0;lucidId=PVnCwPI7EpMv;entryX=1;entryY=0.5;entryDx=0;entryDy=0;" parent="6vR4dQL-GC3axhAhHZct-1" source="6vR4dQL-GC3axhAhHZct-56" target="q0sa2IvHLagkZVXANvXT-25" edge="1">
          <mxGeometry width="100" height="100" relative="1" as="geometry">
            <Array as="points">
              <mxPoint x="460" y="210" />
            </Array>
            <mxPoint x="430" y="240" as="targetPoint" />
          </mxGeometry>
        </mxCell>
        <mxCell id="6vR4dQL-GC3axhAhHZct-58" value="&amp;lt;&amp;lt;extend&amp;gt;&amp;gt;" style="text;html=1;resizable=0;labelBackgroundColor=default;align=center;verticalAlign=middle;fontStyle=1;fontColor=#333333;fontSize=10;" parent="6vR4dQL-GC3axhAhHZct-57" vertex="1">
          <mxGeometry x="-0.21894787238006508" relative="1" as="geometry" />
        </mxCell>
        <mxCell id="6vR4dQL-GC3axhAhHZct-59" value="Credentials do not match the database of current users" style="html=1;overflow=block;blockSpacing=1;whiteSpace=wrap;fontSize=16.7;fontColor=#3a414a;spacing=3.8;strokeColor=#3a414a;strokeOpacity=100;fillOpacity=0;rounded=1;absoluteArcSize=1;arcSize=9;fillColor=#000000;dashed=1;fixDash=1;dashPattern=6 5;strokeWidth=0.8;lucidId=vWnCCHJRT5i2;" parent="6vR4dQL-GC3axhAhHZct-1" vertex="1">
          <mxGeometry x="469" y="280" width="120" height="90" as="geometry" />
        </mxCell>
        <mxCell id="6vR4dQL-GC3axhAhHZct-60" value="" style="html=1;jettySize=18;whiteSpace=wrap;fontSize=13;strokeColor=#3a414a;strokeOpacity=100;dashed=1;fixDash=1;dashPattern=6 5;strokeWidth=0.8;rounded=0;startArrow=none;endArrow=none;exitX=0.5;exitY=-0.004;exitPerimeter=0;lucidId=HWnCu70s5fXD;entryX=0;entryY=0;entryDx=0;entryDy=0;" parent="6vR4dQL-GC3axhAhHZct-1" source="6vR4dQL-GC3axhAhHZct-59" target="6vR4dQL-GC3axhAhHZct-58" edge="1">
          <mxGeometry width="100" height="100" relative="1" as="geometry">
            <Array as="points" />
            <mxPoint x="320" y="310" as="targetPoint" />
          </mxGeometry>
        </mxCell>
        <mxCell id="q0sa2IvHLagkZVXANvXT-25" value="Verify Credentias" style="ellipse;whiteSpace=wrap;html=1;" parent="6vR4dQL-GC3axhAhHZct-1" vertex="1">
          <mxGeometry x="330" y="163" width="110" height="80" as="geometry" />
        </mxCell>
        <mxCell id="q0sa2IvHLagkZVXANvXT-26" style="rounded=0;orthogonalLoop=1;jettySize=auto;html=1;exitX=1;exitY=0.5;exitDx=0;exitDy=0;entryX=-0.023;entryY=0.571;entryDx=0;entryDy=0;entryPerimeter=0;dashed=1;" parent="6vR4dQL-GC3axhAhHZct-1" source="6vR4dQL-GC3axhAhHZct-50" target="q0sa2IvHLagkZVXANvXT-25" edge="1">
          <mxGeometry relative="1" as="geometry" />
        </mxCell>
        <mxCell id="q0sa2IvHLagkZVXANvXT-27" value="&amp;lt;&amp;lt;include&amp;gt;&amp;gt;" style="edgeLabel;html=1;align=center;verticalAlign=middle;resizable=0;points=[];fontSize=8;" parent="q0sa2IvHLagkZVXANvXT-26" vertex="1" connectable="0">
          <mxGeometry x="-0.1038" y="3" relative="1" as="geometry">
            <mxPoint as="offset" />
          </mxGeometry>
        </mxCell>
        <mxCell id="6vR4dQL-GC3axhAhHZct-3" value="User" style="html=1;overflow=block;blockSpacing=1;shape=umlActor;labelPosition=center;verticalLabelPosition=bottom;verticalAlign=top;whiteSpace=nowrap;fontSize=16.7;fontColor=#3a414a;spacing=0;strokeColor=#3a414a;strokeOpacity=100;rounded=1;absoluteArcSize=1;arcSize=9;strokeWidth=0.8;lucidId=U6mCrDSgNbLb;" parent="1" vertex="1">
          <mxGeometry x="120" y="300" width="60" height="135" as="geometry" />
        </mxCell>
        <mxCell id="6vR4dQL-GC3axhAhHZct-5" value="" style="html=1;jettySize=18;whiteSpace=wrap;fontSize=13;strokeColor=#3a414a;strokeOpacity=100;strokeWidth=0.8;rounded=0;startArrow=block;startFill=1;endArrow=none;exitX=-0.003;exitY=0.5;exitPerimeter=0;entryX=0.507;entryY=0.5;entryPerimeter=0;lucidId=..mC2ShL9e-b;" parent="1" source="6vR4dQL-GC3axhAhHZct-4" target="6vR4dQL-GC3axhAhHZct-3" edge="1">
          <mxGeometry width="100" height="100" relative="1" as="geometry">
            <Array as="points" />
          </mxGeometry>
        </mxCell>
        <mxCell id="6vR4dQL-GC3axhAhHZct-26" value="" style="html=1;jettySize=18;whiteSpace=wrap;fontSize=13;strokeColor=#3a414a;strokeOpacity=100;dashed=1;fixDash=1;dashPattern=6 5;strokeWidth=0.8;rounded=0;startArrow=none;endArrow=none;exitX=1.004;exitY=0.5;exitPerimeter=0;lucidId=DknCMLLJci.X;" parent="1" source="6vR4dQL-GC3axhAhHZct-25" edge="1">
          <mxGeometry width="100" height="100" relative="1" as="geometry">
            <Array as="points" />
            <mxPoint x="430" y="594" as="targetPoint" />
          </mxGeometry>
        </mxCell>
        <mxCell id="6vR4dQL-GC3axhAhHZct-31" value="Log In / Sign Up" style="html=1;overflow=block;blockSpacing=1;whiteSpace=wrap;fontSize=16.7;fontColor=#3a414a;spacing=3.8;strokeColor=#3a414a;strokeOpacity=100;fillOpacity=0;rounded=1;absoluteArcSize=1;arcSize=9;fillColor=#000000;strokeWidth=0.8;lucidId=YAnCTzveyhfe;" parent="1" vertex="1">
          <mxGeometry x="563" y="30" width="135" height="30" as="geometry" />
        </mxCell>
        <mxCell id="6vR4dQL-GC3axhAhHZct-61" style="rounded=0;orthogonalLoop=1;jettySize=auto;html=1;exitX=0.5;exitY=0.5;exitDx=0;exitDy=0;exitPerimeter=0;entryX=0.008;entryY=0.622;entryDx=0;entryDy=0;entryPerimeter=0;" parent="1" source="6vR4dQL-GC3axhAhHZct-3" target="6vR4dQL-GC3axhAhHZct-50" edge="1">
          <mxGeometry relative="1" as="geometry" />
        </mxCell>
        <mxCell id="1OJHstHyKNJNklW6DiGo-155" value="" style="html=1;overflow=block;blockSpacing=1;whiteSpace=wrap;container=1;pointerEvents=0;collapsible=0;recursiveResize=0;fontSize=16.7;fontColor=#3a414a;spacing=0;strokeColor=#3a414a;strokeOpacity=100;fillOpacity=0;rounded=1;absoluteArcSize=1;arcSize=9;fillColor=#000000;strokeWidth=0.8;lucidId=BeGFD0pLSkw_;" parent="1" vertex="1">
          <mxGeometry x="1290" y="58" width="750" height="765" as="geometry" />
        </mxCell>
        <mxCell id="Bqvic-vJyQrLB7bYGRzd-67" value="System" style="text;html=1;strokeColor=none;fillColor=none;align=center;verticalAlign=middle;whiteSpace=wrap;rounded=0;" parent="1OJHstHyKNJNklW6DiGo-155" vertex="1">
          <mxGeometry x="330" y="2" width="60" height="30" as="geometry" />
        </mxCell>
        <mxCell id="1OJHstHyKNJNklW6DiGo-156" value="User" style="html=1;overflow=block;blockSpacing=1;shape=umlActor;labelPosition=center;verticalLabelPosition=bottom;verticalAlign=top;whiteSpace=nowrap;fontSize=16.7;fontColor=#3a414a;spacing=0;strokeColor=#3a414a;strokeOpacity=100;rounded=1;absoluteArcSize=1;arcSize=9;strokeWidth=0.8;lucidId=vpGFVkSyYXx9;" parent="1" vertex="1">
          <mxGeometry x="1200" y="148" width="60" height="135" as="geometry" />
        </mxCell>
        <mxCell id="1OJHstHyKNJNklW6DiGo-157" value="Open help request tab" style="html=1;overflow=block;blockSpacing=1;whiteSpace=wrap;ellipse;fontSize=13;spacing=3.8;strokeColor=#3a414a;strokeOpacity=100;rounded=1;absoluteArcSize=1;arcSize=9;strokeWidth=0.8;lucidId=ZpGFaHIB0dEf;" parent="1" vertex="1">
          <mxGeometry x="1470" y="133" width="120" height="90" as="geometry" />
        </mxCell>
        <mxCell id="1OJHstHyKNJNklW6DiGo-158" value="Add request to database" style="html=1;overflow=block;blockSpacing=1;whiteSpace=wrap;ellipse;fontSize=13;spacing=3.8;strokeColor=#3a414a;strokeOpacity=100;rounded=1;absoluteArcSize=1;arcSize=9;strokeWidth=0.8;lucidId=GtGF5D6FXER~;" parent="1" vertex="1">
          <mxGeometry x="1710" y="171" width="120" height="90" as="geometry" />
        </mxCell>
        <mxCell id="1OJHstHyKNJNklW6DiGo-159" value="" style="html=1;jettySize=18;whiteSpace=wrap;fontSize=13;strokeColor=#3a414a;strokeOpacity=100;strokeWidth=0.8;rounded=0;startArrow=none;exitX=0.506;exitY=0.439;exitPerimeter=0;entryX=-0.003;entryY=0.5;entryPerimeter=0;lucidId=4uGFILEftq11;" parent="1" source="1OJHstHyKNJNklW6DiGo-156" target="1OJHstHyKNJNklW6DiGo-157" edge="1">
          <mxGeometry width="100" height="100" relative="1" as="geometry">
            <Array as="points" />
          </mxGeometry>
        </mxCell>
        <mxCell id="1OJHstHyKNJNklW6DiGo-160" value="Add details" style="html=1;overflow=block;blockSpacing=1;whiteSpace=wrap;ellipse;fontSize=13;spacing=3.8;strokeColor=#3a414a;strokeOpacity=100;rounded=1;absoluteArcSize=1;arcSize=9;strokeWidth=0.8;lucidId=4vGFCigN5jJ.;" parent="1" vertex="1">
          <mxGeometry x="1470" y="343" width="120" height="90" as="geometry" />
        </mxCell>
        <mxCell id="1OJHstHyKNJNklW6DiGo-161" value="" style="html=1;jettySize=18;whiteSpace=wrap;fontSize=13;strokeColor=#3a414a;strokeOpacity=100;strokeWidth=0.8;rounded=0;startArrow=none;endArrow=block;endFill=1;exitX=0.5;exitY=1.004;exitPerimeter=0;entryX=0.5;entryY=-0.004;entryPerimeter=0;lucidId=jwGFqHiYJGC7;" parent="1" source="1OJHstHyKNJNklW6DiGo-157" target="1OJHstHyKNJNklW6DiGo-160" edge="1">
          <mxGeometry width="100" height="100" relative="1" as="geometry">
            <Array as="points" />
          </mxGeometry>
        </mxCell>
        <mxCell id="1OJHstHyKNJNklW6DiGo-162" value="" style="html=1;jettySize=18;whiteSpace=wrap;fontSize=13;strokeColor=#3a414a;strokeOpacity=100;dashed=1;fixDash=1;strokeWidth=0.8;rounded=0;startArrow=none;endArrow=block;endFill=1;exitX=0.863;exitY=0.152;exitPerimeter=0;entryX=0.137;entryY=0.848;entryPerimeter=0;lucidId=JwGFjEyW~94H;" parent="1" source="1OJHstHyKNJNklW6DiGo-160" target="1OJHstHyKNJNklW6DiGo-158" edge="1">
          <mxGeometry width="100" height="100" relative="1" as="geometry">
            <Array as="points" />
          </mxGeometry>
        </mxCell>
        <mxCell id="1OJHstHyKNJNklW6DiGo-163" value="&amp;lt;&amp;lt;include&amp;gt;&amp;gt;" style="text;html=1;resizable=0;labelBackgroundColor=default;align=center;verticalAlign=middle;fontStyle=1;fontColor=#333333;fontSize=13.3;" parent="1OJHstHyKNJNklW6DiGo-162" vertex="1">
          <mxGeometry relative="1" as="geometry" />
        </mxCell>
        <mxCell id="1OJHstHyKNJNklW6DiGo-164" value="Administrator" style="html=1;overflow=block;blockSpacing=1;shape=umlActor;labelPosition=center;verticalLabelPosition=bottom;verticalAlign=top;whiteSpace=nowrap;fontSize=16.7;fontColor=#3a414a;spacing=0;strokeColor=#3a414a;strokeOpacity=100;rounded=1;absoluteArcSize=1;arcSize=9;strokeWidth=0.8;lucidId=nzGFpYim143f;" parent="1" vertex="1">
          <mxGeometry x="1200" y="553" width="60" height="135" as="geometry" />
        </mxCell>
        <mxCell id="1OJHstHyKNJNklW6DiGo-165" value="View help request" style="html=1;overflow=block;blockSpacing=1;whiteSpace=wrap;ellipse;fontSize=13;spacing=3.8;strokeColor=#3a414a;strokeOpacity=100;rounded=1;absoluteArcSize=1;arcSize=9;strokeWidth=0.8;lucidId=.zGFiMqKMeuo;" parent="1" vertex="1">
          <mxGeometry x="1335" y="673" width="120" height="90" as="geometry" />
        </mxCell>
        <mxCell id="1OJHstHyKNJNklW6DiGo-166" value="" style="html=1;jettySize=18;whiteSpace=wrap;fontSize=13;strokeColor=#3a414a;strokeOpacity=100;strokeWidth=0.8;rounded=0;startArrow=none;endArrow=none;exitX=0.506;exitY=0.439;exitPerimeter=0;entryX=-0.003;entryY=0.5;entryPerimeter=0;lucidId=JIGFXTbBV3~T;" parent="1" source="1OJHstHyKNJNklW6DiGo-164" target="1OJHstHyKNJNklW6DiGo-165" edge="1">
          <mxGeometry width="100" height="100" relative="1" as="geometry">
            <Array as="points" />
          </mxGeometry>
        </mxCell>
        <mxCell id="1OJHstHyKNJNklW6DiGo-167" value="loading database" style="html=1;overflow=block;blockSpacing=1;whiteSpace=wrap;ellipse;fontSize=13;spacing=3.8;strokeColor=#3a414a;strokeOpacity=100;rounded=1;absoluteArcSize=1;arcSize=9;strokeWidth=0.8;lucidId=fMGF3glqqR0~;" parent="1" vertex="1">
          <mxGeometry x="1350" y="433" width="120" height="90" as="geometry" />
        </mxCell>
        <mxCell id="1OJHstHyKNJNklW6DiGo-168" value="change status" style="html=1;overflow=block;blockSpacing=1;whiteSpace=wrap;ellipse;fontSize=13;spacing=3.8;strokeColor=#3a414a;strokeOpacity=100;rounded=1;absoluteArcSize=1;arcSize=9;strokeWidth=0.8;lucidId=aNGFNYM4~sqP;" parent="1" vertex="1">
          <mxGeometry x="1665" y="493" width="120" height="90" as="geometry" />
        </mxCell>
        <mxCell id="1OJHstHyKNJNklW6DiGo-169" value="delete" style="html=1;overflow=block;blockSpacing=1;whiteSpace=wrap;ellipse;fontSize=13;spacing=3.8;strokeColor=#3a414a;strokeOpacity=100;rounded=1;absoluteArcSize=1;arcSize=9;strokeWidth=0.8;lucidId=_NGFpUlW80gB;" parent="1" vertex="1">
          <mxGeometry x="1695" y="658" width="120" height="90" as="geometry" />
        </mxCell>
        <mxCell id="1OJHstHyKNJNklW6DiGo-170" value="update database" style="html=1;overflow=block;blockSpacing=1;whiteSpace=wrap;ellipse;fontSize=13;spacing=3.8;strokeColor=#3a414a;strokeOpacity=100;rounded=1;absoluteArcSize=1;arcSize=9;strokeWidth=0.8;lucidId=qOGFqpb~3_iu;" parent="1" vertex="1">
          <mxGeometry x="1890" y="508" width="120" height="90" as="geometry" />
        </mxCell>
        <mxCell id="1OJHstHyKNJNklW6DiGo-171" value="" style="html=1;jettySize=18;whiteSpace=wrap;fontSize=13;strokeColor=#3a414a;strokeOpacity=100;dashed=1;fixDash=1;strokeWidth=0.8;rounded=0;startArrow=none;endArrow=block;endFill=1;exitX=0.524;exitY=-0.003;exitPerimeter=0;entryX=0.476;entryY=1.003;entryPerimeter=0;lucidId=QOGFMjzzVc_C;" parent="1" source="1OJHstHyKNJNklW6DiGo-165" target="1OJHstHyKNJNklW6DiGo-167" edge="1">
          <mxGeometry width="100" height="100" relative="1" as="geometry">
            <Array as="points" />
          </mxGeometry>
        </mxCell>
        <mxCell id="1OJHstHyKNJNklW6DiGo-172" value="&amp;lt;&amp;lt;include&amp;gt;&amp;gt;" style="text;html=1;resizable=0;labelBackgroundColor=default;align=center;verticalAlign=middle;fontStyle=1;fontColor=#333333;fontSize=13.3;" parent="1OJHstHyKNJNklW6DiGo-171" vertex="1">
          <mxGeometry x="-0.14540723020974622" relative="1" as="geometry" />
        </mxCell>
        <mxCell id="1OJHstHyKNJNklW6DiGo-173" value="" style="html=1;jettySize=18;whiteSpace=wrap;fontSize=13;strokeColor=#3a414a;strokeOpacity=100;dashed=1;fixDash=1;strokeWidth=0.8;rounded=0;startArrow=none;endArrow=block;endFill=1;exitX=-0.003;exitY=0.5;exitPerimeter=0;entryX=1.003;entryY=0.5;entryPerimeter=0;lucidId=vPGFeowx-j0X;" parent="1" source="1OJHstHyKNJNklW6DiGo-169" target="1OJHstHyKNJNklW6DiGo-165" edge="1">
          <mxGeometry width="100" height="100" relative="1" as="geometry">
            <Array as="points" />
          </mxGeometry>
        </mxCell>
        <mxCell id="1OJHstHyKNJNklW6DiGo-174" value="&amp;lt;&amp;lt;extend&amp;gt;&amp;gt;" style="text;html=1;resizable=0;labelBackgroundColor=default;align=center;verticalAlign=middle;fontStyle=1;fontColor=#333333;fontSize=13.3;" parent="1OJHstHyKNJNklW6DiGo-173" vertex="1">
          <mxGeometry x="0.12672807643991946" relative="1" as="geometry" />
        </mxCell>
        <mxCell id="1OJHstHyKNJNklW6DiGo-175" value="" style="html=1;jettySize=18;whiteSpace=wrap;fontSize=13;strokeColor=#3a414a;strokeOpacity=100;dashed=1;fixDash=1;strokeWidth=0.8;rounded=0;startArrow=none;endArrow=block;endFill=1;exitX=-0.003;exitY=0.5;exitPerimeter=0;entryX=1.003;entryY=0.5;entryPerimeter=0;lucidId=CPGFaKpSsygV;" parent="1" source="1OJHstHyKNJNklW6DiGo-168" target="1OJHstHyKNJNklW6DiGo-165" edge="1">
          <mxGeometry width="100" height="100" relative="1" as="geometry">
            <Array as="points" />
          </mxGeometry>
        </mxCell>
        <mxCell id="1OJHstHyKNJNklW6DiGo-176" value="&amp;lt;&amp;lt;extend&amp;gt;&amp;gt;" style="text;html=1;resizable=0;labelBackgroundColor=default;align=center;verticalAlign=middle;fontStyle=1;fontColor=#333333;fontSize=13.3;" parent="1OJHstHyKNJNklW6DiGo-175" vertex="1">
          <mxGeometry relative="1" as="geometry" />
        </mxCell>
        <mxCell id="1OJHstHyKNJNklW6DiGo-177" value="" style="html=1;jettySize=18;whiteSpace=wrap;fontSize=13;strokeColor=#3a414a;strokeOpacity=100;strokeWidth=0.8;rounded=0;startArrow=none;endArrow=block;endFill=1;exitX=1.003;exitY=0.5;exitPerimeter=0;entryX=-0.003;entryY=0.5;entryPerimeter=0;lucidId=nQGFM1hmXuUh;" parent="1" source="1OJHstHyKNJNklW6DiGo-168" target="1OJHstHyKNJNklW6DiGo-170" edge="1">
          <mxGeometry width="100" height="100" relative="1" as="geometry">
            <Array as="points" />
          </mxGeometry>
        </mxCell>
        <mxCell id="1OJHstHyKNJNklW6DiGo-178" value="" style="html=1;jettySize=18;whiteSpace=wrap;fontSize=13;strokeColor=#3a414a;strokeOpacity=100;strokeWidth=0.8;rounded=0;startArrow=none;endArrow=block;endFill=1;exitX=1.003;exitY=0.5;exitPerimeter=0;entryX=-0.003;entryY=0.5;entryPerimeter=0;lucidId=AQGF8owcf9k7;" parent="1" source="1OJHstHyKNJNklW6DiGo-169" target="1OJHstHyKNJNklW6DiGo-170" edge="1">
          <mxGeometry width="100" height="100" relative="1" as="geometry">
            <Array as="points" />
          </mxGeometry>
        </mxCell>
        <mxCell id="1OJHstHyKNJNklW6DiGo-179" value="admin choice" style="html=1;overflow=block;blockSpacing=1;whiteSpace=wrap;fontSize=16.7;fontColor=#3a414a;spacing=9;strokeColor=#3a414a;strokeOpacity=100;rounded=1;absoluteArcSize=1;arcSize=9;dashed=1;fixDash=1;strokeWidth=0.8;lucidId=5SGFgEWi7IgW;" parent="1" vertex="1">
          <mxGeometry x="1605" y="613" width="90" height="45" as="geometry" />
        </mxCell>
        <mxCell id="1OJHstHyKNJNklW6DiGo-180" value="" style="html=1;jettySize=18;whiteSpace=wrap;fontSize=13;strokeColor=#3a414a;strokeOpacity=100;dashed=1;fixDash=1;strokeWidth=0.8;rounded=0;startArrow=none;endArrow=none;exitX=0.5;exitY=-0.008;exitPerimeter=0;lucidId=wTGFry7qydg7;" parent="1" source="1OJHstHyKNJNklW6DiGo-179" edge="1">
          <mxGeometry width="100" height="100" relative="1" as="geometry">
            <Array as="points" />
            <mxPoint x="1617" y="579" as="targetPoint" />
          </mxGeometry>
        </mxCell>
        <mxCell id="1OJHstHyKNJNklW6DiGo-181" value="" style="html=1;jettySize=18;whiteSpace=wrap;fontSize=13;strokeColor=#3a414a;strokeOpacity=100;dashed=1;fixDash=1;strokeWidth=0.8;rounded=0;startArrow=none;endArrow=none;exitX=0.5;exitY=1.008;exitPerimeter=0;lucidId=KTGFtxrxzj0g;" parent="1" source="1OJHstHyKNJNklW6DiGo-179" edge="1">
          <mxGeometry width="100" height="100" relative="1" as="geometry">
            <Array as="points" />
            <mxPoint x="1650" y="706" as="targetPoint" />
          </mxGeometry>
        </mxCell>
        <mxCell id="1OJHstHyKNJNklW6DiGo-182" value="Help centre" style="html=1;overflow=block;blockSpacing=1;whiteSpace=wrap;fontSize=16.7;fontColor=#3a414a;spacing=3.8;strokeColor=#3a414a;strokeOpacity=100;fillOpacity=0;rounded=1;absoluteArcSize=1;arcSize=9;fillColor=#000000;strokeWidth=0.8;lucidId=YAnCTzveyhfe;" parent="1" vertex="1">
          <mxGeometry x="1597.5" y="28" width="135" height="30" as="geometry" />
        </mxCell>
        <mxCell id="Bqvic-vJyQrLB7bYGRzd-45" value="system" style="html=1;overflow=block;blockSpacing=1;whiteSpace=wrap;container=1;pointerEvents=0;collapsible=0;recursiveResize=0;fontSize=16.7;fontColor=#3a414a;spacing=0;strokeColor=#3a414a;strokeOpacity=100;fillOpacity=0;rounded=1;absoluteArcSize=1;arcSize=9;fillColor=#000000;strokeWidth=0.8;lucidId=N~JHaBFP2N3E;" parent="1" vertex="1">
          <mxGeometry x="2490" y="58" width="750" height="765" as="geometry" />
        </mxCell>
        <mxCell id="Bqvic-vJyQrLB7bYGRzd-68" value="System" style="text;html=1;strokeColor=none;fillColor=none;align=center;verticalAlign=middle;whiteSpace=wrap;rounded=0;" parent="Bqvic-vJyQrLB7bYGRzd-45" vertex="1">
          <mxGeometry x="375" width="60" height="30" as="geometry" />
        </mxCell>
        <mxCell id="Bqvic-vJyQrLB7bYGRzd-46" value="User" style="html=1;overflow=block;blockSpacing=1;shape=umlActor;labelPosition=center;verticalLabelPosition=bottom;verticalAlign=top;whiteSpace=nowrap;fontSize=16.7;fontColor=#3a414a;spacing=0;strokeColor=#3a414a;strokeOpacity=100;rounded=1;absoluteArcSize=1;arcSize=9;strokeWidth=0.8;lucidId=N~JHmBPDwIQM;" parent="1" vertex="1">
          <mxGeometry x="2340" y="351" width="60" height="135" as="geometry" />
        </mxCell>
        <mxCell id="Bqvic-vJyQrLB7bYGRzd-47" value="Type in search request" style="html=1;overflow=block;blockSpacing=1;whiteSpace=wrap;ellipse;fontSize=13;spacing=3.8;strokeColor=#3a414a;strokeOpacity=100;rounded=1;absoluteArcSize=1;arcSize=9;strokeWidth=0.8;lucidId=N~JH9~ZH~qYt;" parent="1" vertex="1">
          <mxGeometry x="2505" y="373" width="120" height="90" as="geometry" />
        </mxCell>
        <mxCell id="Bqvic-vJyQrLB7bYGRzd-48" value="" style="html=1;jettySize=18;whiteSpace=wrap;fontSize=13;strokeColor=#3a414a;strokeOpacity=100;strokeWidth=0.8;rounded=0;startArrow=none;exitX=0.506;exitY=0.439;exitPerimeter=0;entryX=-0.003;entryY=0.5;entryPerimeter=0;lucidId=N~JHFVCOYIaK;" parent="1" source="Bqvic-vJyQrLB7bYGRzd-46" target="Bqvic-vJyQrLB7bYGRzd-47" edge="1">
          <mxGeometry width="100" height="100" relative="1" as="geometry">
            <Array as="points" />
          </mxGeometry>
        </mxCell>
        <mxCell id="Bqvic-vJyQrLB7bYGRzd-49" value="Choose filters" style="html=1;overflow=block;blockSpacing=1;whiteSpace=wrap;ellipse;fontSize=13;spacing=3.8;strokeColor=#3a414a;strokeOpacity=100;rounded=1;absoluteArcSize=1;arcSize=9;strokeWidth=0.8;lucidId=3AKHNt8c~iTE;" parent="1" vertex="1">
          <mxGeometry x="2685" y="103" width="120" height="90" as="geometry" />
        </mxCell>
        <mxCell id="Bqvic-vJyQrLB7bYGRzd-50" value="Choose sorting method" style="html=1;overflow=block;blockSpacing=1;whiteSpace=wrap;ellipse;fontSize=13;spacing=3.8;strokeColor=#3a414a;strokeOpacity=100;rounded=1;absoluteArcSize=1;arcSize=9;strokeWidth=0.8;lucidId=4AKHBS.n0QWH;" parent="1" vertex="1">
          <mxGeometry x="2745" y="343" width="120" height="90" as="geometry" />
        </mxCell>
        <mxCell id="Bqvic-vJyQrLB7bYGRzd-51" value="Submit search request" style="html=1;overflow=block;blockSpacing=1;whiteSpace=wrap;ellipse;fontSize=13;spacing=3.8;strokeColor=#3a414a;strokeOpacity=100;rounded=1;absoluteArcSize=1;arcSize=9;strokeWidth=0.8;lucidId=5AKHC8ERSOxO;" parent="1" vertex="1">
          <mxGeometry x="2925" y="433" width="120" height="90" as="geometry" />
        </mxCell>
        <mxCell id="Bqvic-vJyQrLB7bYGRzd-52" value="" style="html=1;jettySize=18;whiteSpace=wrap;fontSize=13;strokeColor=#3a414a;strokeOpacity=100;strokeWidth=0.8;rounded=0;startArrow=none;endArrow=block;endFill=1;exitX=1.003;exitY=0.5;exitPerimeter=0;entryX=-0.003;entryY=0.5;entryPerimeter=0;lucidId=ECKHcKHKESN7;" parent="1" source="Bqvic-vJyQrLB7bYGRzd-47" target="Bqvic-vJyQrLB7bYGRzd-51" edge="1">
          <mxGeometry width="100" height="100" relative="1" as="geometry">
            <Array as="points" />
          </mxGeometry>
        </mxCell>
        <mxCell id="Bqvic-vJyQrLB7bYGRzd-53" value="" style="html=1;jettySize=18;whiteSpace=wrap;fontSize=13;strokeColor=#3a414a;strokeOpacity=100;strokeWidth=0.8;rounded=0;startArrow=none;endArrow=block;endFill=1;exitX=1.003;exitY=0.5;exitPerimeter=0;entryX=-0.003;entryY=0.5;entryPerimeter=0;lucidId=HCKHlK-BeV-5;" parent="1" source="Bqvic-vJyQrLB7bYGRzd-49" target="Bqvic-vJyQrLB7bYGRzd-51" edge="1">
          <mxGeometry width="100" height="100" relative="1" as="geometry">
            <Array as="points" />
          </mxGeometry>
        </mxCell>
        <mxCell id="Bqvic-vJyQrLB7bYGRzd-54" value="" style="html=1;jettySize=18;whiteSpace=wrap;fontSize=13;strokeColor=#3a414a;strokeOpacity=100;strokeWidth=0.8;rounded=0;startArrow=none;endArrow=block;endFill=1;exitX=1.003;exitY=0.5;exitPerimeter=0;entryX=-0.003;entryY=0.508;entryPerimeter=0;lucidId=KCKHt02Xx7s.;" parent="1" source="Bqvic-vJyQrLB7bYGRzd-50" target="Bqvic-vJyQrLB7bYGRzd-51" edge="1">
          <mxGeometry width="100" height="100" relative="1" as="geometry">
            <Array as="points" />
          </mxGeometry>
        </mxCell>
        <mxCell id="Bqvic-vJyQrLB7bYGRzd-55" value="Find information in database" style="html=1;overflow=block;blockSpacing=1;whiteSpace=wrap;ellipse;fontSize=13;spacing=3.8;strokeColor=#3a414a;strokeOpacity=100;rounded=1;absoluteArcSize=1;arcSize=9;strokeWidth=0.8;lucidId=jDKHwEH9Gm9o;" parent="1" vertex="1">
          <mxGeometry x="2730" y="553" width="120" height="90" as="geometry" />
        </mxCell>
        <mxCell id="Bqvic-vJyQrLB7bYGRzd-56" value="" style="html=1;jettySize=18;whiteSpace=wrap;fontSize=13;strokeColor=#3a414a;strokeOpacity=100;dashed=1;fixDash=1;strokeWidth=0.8;rounded=0;startArrow=none;endArrow=block;endFill=1;exitX=-0.003;exitY=0.5;exitPerimeter=0;entryX=0.5;entryY=-0.004;entryPerimeter=0;lucidId=AEKHVS7~rerH;" parent="1" source="Bqvic-vJyQrLB7bYGRzd-49" target="Bqvic-vJyQrLB7bYGRzd-47" edge="1">
          <mxGeometry width="100" height="100" relative="1" as="geometry">
            <Array as="points" />
          </mxGeometry>
        </mxCell>
        <mxCell id="Bqvic-vJyQrLB7bYGRzd-57" value="&amp;lt;&amp;lt;extend&amp;gt;&amp;gt;" style="text;html=1;resizable=0;labelBackgroundColor=default;align=center;verticalAlign=middle;fontStyle=1;fontColor=#333333;fontSize=13.3;" parent="Bqvic-vJyQrLB7bYGRzd-56" vertex="1">
          <mxGeometry x="-0.1586132555431914" relative="1" as="geometry" />
        </mxCell>
        <mxCell id="Bqvic-vJyQrLB7bYGRzd-58" value="" style="html=1;jettySize=18;whiteSpace=wrap;fontSize=13;strokeColor=#3a414a;strokeOpacity=100;dashed=1;fixDash=1;strokeWidth=0.8;rounded=0;startArrow=none;endArrow=block;endFill=1;exitX=-0.003;exitY=0.5;exitPerimeter=0;entryX=0.5;entryY=-0.004;entryPerimeter=0;lucidId=DEKHrCNKmXNl;" parent="1" source="Bqvic-vJyQrLB7bYGRzd-50" target="Bqvic-vJyQrLB7bYGRzd-47" edge="1">
          <mxGeometry width="100" height="100" relative="1" as="geometry">
            <Array as="points" />
          </mxGeometry>
        </mxCell>
        <mxCell id="Bqvic-vJyQrLB7bYGRzd-59" value="&amp;lt;&amp;lt;extend&amp;gt;&amp;gt;" style="text;html=1;resizable=0;labelBackgroundColor=default;align=center;verticalAlign=middle;fontStyle=1;fontColor=#333333;fontSize=13.3;" parent="Bqvic-vJyQrLB7bYGRzd-58" vertex="1">
          <mxGeometry x="0.1972287701931974" relative="1" as="geometry" />
        </mxCell>
        <mxCell id="Bqvic-vJyQrLB7bYGRzd-60" value="user choice" style="html=1;overflow=block;blockSpacing=1;whiteSpace=wrap;fontSize=16.7;fontColor=#3a414a;spacing=9;strokeColor=#3a414a;strokeOpacity=100;rounded=1;absoluteArcSize=1;arcSize=9;dashed=1;fixDash=1;strokeWidth=0.8;lucidId=yGKHZzL_E-Pf;" parent="1" vertex="1">
          <mxGeometry x="2685" y="268" width="90" height="58" as="geometry" />
        </mxCell>
        <mxCell id="Bqvic-vJyQrLB7bYGRzd-61" value="" style="html=1;jettySize=18;whiteSpace=wrap;fontSize=13;strokeColor=#3a414a;strokeOpacity=100;dashed=1;fixDash=1;strokeWidth=0.8;rounded=0;startArrow=none;endArrow=none;exitX=-0.004;exitY=0.5;exitPerimeter=0;lucidId=HGKHUwfHlymg;" parent="1" source="Bqvic-vJyQrLB7bYGRzd-60" edge="1">
          <mxGeometry width="100" height="100" relative="1" as="geometry">
            <Array as="points" />
            <mxPoint x="2622" y="266" as="targetPoint" />
          </mxGeometry>
        </mxCell>
        <mxCell id="Bqvic-vJyQrLB7bYGRzd-62" value="" style="html=1;jettySize=18;whiteSpace=wrap;fontSize=13;strokeColor=#3a414a;strokeOpacity=100;dashed=1;fixDash=1;strokeWidth=0.8;rounded=0;startArrow=none;endArrow=none;exitX=0.5;exitY=1.006;exitPerimeter=0;lucidId=JGKH..4de5Xy;" parent="1" source="Bqvic-vJyQrLB7bYGRzd-60" edge="1">
          <mxGeometry width="100" height="100" relative="1" as="geometry">
            <Array as="points" />
            <mxPoint x="2731" y="387" as="targetPoint" />
          </mxGeometry>
        </mxCell>
        <mxCell id="Bqvic-vJyQrLB7bYGRzd-63" value="" style="html=1;jettySize=18;whiteSpace=wrap;fontSize=13;strokeColor=#3a414a;strokeOpacity=100;dashed=1;fixDash=1;strokeWidth=0.8;rounded=0;endArrow=none;exitX=0.5;exitY=-0.004;exitPerimeter=0;entryX=0.5;entryY=1.004;entryPerimeter=0;lucidId=3IKHFAMjMxM-;" parent="1" source="Bqvic-vJyQrLB7bYGRzd-55" target="Bqvic-vJyQrLB7bYGRzd-51" edge="1">
          <mxGeometry width="100" height="100" relative="1" as="geometry">
            <Array as="points" />
          </mxGeometry>
        </mxCell>
        <mxCell id="Bqvic-vJyQrLB7bYGRzd-64" value="&amp;lt;&amp;lt;include&amp;gt;&amp;gt;" style="text;html=1;resizable=0;labelBackgroundColor=default;align=center;verticalAlign=middle;fontStyle=1;fontColor=#333333;fontSize=13.3;" parent="Bqvic-vJyQrLB7bYGRzd-63" vertex="1">
          <mxGeometry relative="1" as="geometry" />
        </mxCell>
        <mxCell id="Bqvic-vJyQrLB7bYGRzd-65" value="see the results" style="html=1;overflow=block;blockSpacing=1;whiteSpace=wrap;ellipse;fontSize=13;spacing=3.8;strokeColor=#3a414a;strokeOpacity=100;rounded=1;absoluteArcSize=1;arcSize=9;strokeWidth=0.8;lucidId=vJKHtnxZXHlt;" parent="1" vertex="1">
          <mxGeometry x="2910" y="643" width="120" height="90" as="geometry" />
        </mxCell>
        <mxCell id="Bqvic-vJyQrLB7bYGRzd-66" value="" style="html=1;jettySize=18;whiteSpace=wrap;fontSize=13;strokeColor=#3a414a;strokeOpacity=100;strokeWidth=0.8;rounded=0;startArrow=none;endArrow=block;endFill=1;exitX=0.5;exitY=1.004;exitPerimeter=0;entryX=-0.003;entryY=0.5;entryPerimeter=0;lucidId=~4KHgbUt4pAa;" parent="1" source="Bqvic-vJyQrLB7bYGRzd-55" target="Bqvic-vJyQrLB7bYGRzd-65" edge="1">
          <mxGeometry width="100" height="100" relative="1" as="geometry">
            <Array as="points" />
          </mxGeometry>
        </mxCell>
        <mxCell id="Bqvic-vJyQrLB7bYGRzd-69" value="Search" style="html=1;overflow=block;blockSpacing=1;whiteSpace=wrap;fontSize=16.7;fontColor=#3a414a;spacing=3.8;strokeColor=#3a414a;strokeOpacity=100;fillOpacity=0;rounded=1;absoluteArcSize=1;arcSize=9;fillColor=#000000;strokeWidth=0.8;lucidId=YAnCTzveyhfe;" parent="1" vertex="1">
          <mxGeometry x="2827.5" y="28" width="135" height="30" as="geometry" />
        </mxCell>
        <mxCell id="q0sa2IvHLagkZVXANvXT-18" value="Use Case Name" style="rounded=0;whiteSpace=wrap;html=1;fillColor=none;" parent="1" vertex="1">
          <mxGeometry x="280" y="800" width="100" height="20" as="geometry" />
        </mxCell>
        <mxCell id="q0sa2IvHLagkZVXANvXT-19" value="Actors" style="rounded=0;whiteSpace=wrap;html=1;fillColor=none;" parent="1" vertex="1">
          <mxGeometry x="280" y="820" width="100" height="20" as="geometry" />
        </mxCell>
        <mxCell id="q0sa2IvHLagkZVXANvXT-20" value="Log In" style="rounded=0;whiteSpace=wrap;html=1;fillColor=none;" parent="1" vertex="1">
          <mxGeometry x="380" y="800" width="380" height="20" as="geometry" />
        </mxCell>
        <mxCell id="q0sa2IvHLagkZVXANvXT-21" value="Consultant" style="rounded=0;whiteSpace=wrap;html=1;fillColor=none;" parent="1" vertex="1">
          <mxGeometry x="380" y="820" width="380" height="20" as="geometry" />
        </mxCell>
        <mxCell id="q0sa2IvHLagkZVXANvXT-23" value="Flow of Events" style="rounded=0;whiteSpace=wrap;html=1;fillColor=none;" parent="1" vertex="1">
          <mxGeometry x="280" y="840" width="100" height="80" as="geometry" />
        </mxCell>
        <mxCell id="q0sa2IvHLagkZVXANvXT-24" value="1. User clicks on the &quot;Log In&quot; button&lt;br&gt;2. User enters details&lt;br&gt;3. Program verifies the credentials&lt;br&gt;4. Confirmation message displayed" style="rounded=0;whiteSpace=wrap;html=1;fillColor=none;" parent="1" vertex="1">
          <mxGeometry x="380" y="840" width="380" height="80" as="geometry" />
        </mxCell>
        <mxCell id="q0sa2IvHLagkZVXANvXT-29" value="Alternate Flows" style="rounded=0;whiteSpace=wrap;html=1;fillColor=none;" parent="1" vertex="1">
          <mxGeometry x="280" y="920" width="100" height="80" as="geometry" />
        </mxCell>
        <mxCell id="q0sa2IvHLagkZVXANvXT-30" value="2a. Message displays: &quot;E-mail does not contain &#39;@citisoft.co.uk&#39;&quot;&lt;br&gt;2b. Message displays: &quot;Password needs to be between 8 and 25 characters long and contain a number, uppercase letter(s) and special characters.&quot;&lt;br&gt;3a. Message displays: &quot;Invalid credentials&quot;" style="rounded=0;whiteSpace=wrap;html=1;fillColor=none;" parent="1" vertex="1">
          <mxGeometry x="380" y="920" width="380" height="80" as="geometry" />
        </mxCell>
        <mxCell id="q0sa2IvHLagkZVXANvXT-31" value="Entry Conditions" style="rounded=0;whiteSpace=wrap;html=1;fillColor=none;" parent="1" vertex="1">
          <mxGeometry x="280" y="1000" width="100" height="20" as="geometry" />
        </mxCell>
        <mxCell id="q0sa2IvHLagkZVXANvXT-32" value="User has an account registered" style="rounded=0;whiteSpace=wrap;html=1;fillColor=none;" parent="1" vertex="1">
          <mxGeometry x="380" y="1000" width="380" height="20" as="geometry" />
        </mxCell>
        <mxCell id="q0sa2IvHLagkZVXANvXT-33" value="Exit conditions" style="rounded=0;whiteSpace=wrap;html=1;fillColor=none;" parent="1" vertex="1">
          <mxGeometry x="280" y="1020" width="100" height="20" as="geometry" />
        </mxCell>
        <mxCell id="q0sa2IvHLagkZVXANvXT-34" value="User either logs in successfully or cancels the process" style="rounded=0;whiteSpace=wrap;html=1;fillColor=none;" parent="1" vertex="1">
          <mxGeometry x="380" y="1020" width="380" height="20" as="geometry" />
        </mxCell>
        <mxCell id="q0sa2IvHLagkZVXANvXT-35" value="Use Case Name" style="rounded=0;whiteSpace=wrap;html=1;fillColor=none;" parent="1" vertex="1">
          <mxGeometry x="280" y="1080" width="100" height="20" as="geometry" />
        </mxCell>
        <mxCell id="q0sa2IvHLagkZVXANvXT-36" value="Actors" style="rounded=0;whiteSpace=wrap;html=1;fillColor=none;" parent="1" vertex="1">
          <mxGeometry x="280" y="1100" width="100" height="20" as="geometry" />
        </mxCell>
        <mxCell id="q0sa2IvHLagkZVXANvXT-37" value="Sign Up" style="rounded=0;whiteSpace=wrap;html=1;fillColor=none;" parent="1" vertex="1">
          <mxGeometry x="380" y="1080" width="380" height="20" as="geometry" />
        </mxCell>
        <mxCell id="q0sa2IvHLagkZVXANvXT-38" value="Consultant" style="rounded=0;whiteSpace=wrap;html=1;fillColor=none;" parent="1" vertex="1">
          <mxGeometry x="380" y="1100" width="380" height="20" as="geometry" />
        </mxCell>
        <mxCell id="q0sa2IvHLagkZVXANvXT-39" value="Flow of Events" style="rounded=0;whiteSpace=wrap;html=1;fillColor=none;" parent="1" vertex="1">
          <mxGeometry x="280" y="1120" width="100" height="80" as="geometry" />
        </mxCell>
        <mxCell id="q0sa2IvHLagkZVXANvXT-40" value="1. User clicks on the &quot;Sign Up&quot; button&amp;nbsp;&lt;br&gt;2. User enters details&lt;br&gt;3. Program verifies the credentials&lt;br&gt;4. Program stores the credentials in the database&lt;br&gt;5. Confirmation message displayed" style="rounded=0;whiteSpace=wrap;html=1;fillColor=none;" parent="1" vertex="1">
          <mxGeometry x="380" y="1120" width="380" height="80" as="geometry" />
        </mxCell>
        <mxCell id="q0sa2IvHLagkZVXANvXT-41" value="Alternate Flows" style="rounded=0;whiteSpace=wrap;html=1;fillColor=none;" parent="1" vertex="1">
          <mxGeometry x="280" y="1200" width="100" height="80" as="geometry" />
        </mxCell>
        <mxCell id="q0sa2IvHLagkZVXANvXT-42" value="2a. Message displays: &quot;E-mail does not contain &#39;@citisoft.co.uk&#39;&quot;&lt;br&gt;2b. Message displays: &quot;Password needs to be between 8 and 25 characters long and contain a number, uppercase letter(s) and special characters.&quot;&lt;br&gt;3a. Message displays: &quot;Account already exists&quot;" style="rounded=0;whiteSpace=wrap;html=1;fillColor=none;" parent="1" vertex="1">
          <mxGeometry x="380" y="1200" width="380" height="80" as="geometry" />
        </mxCell>
        <mxCell id="q0sa2IvHLagkZVXANvXT-43" value="Entry Conditions" style="rounded=0;whiteSpace=wrap;html=1;fillColor=none;" parent="1" vertex="1">
          <mxGeometry x="280" y="1280" width="100" height="20" as="geometry" />
        </mxCell>
        <mxCell id="q0sa2IvHLagkZVXANvXT-44" value="User does not have an account" style="rounded=0;whiteSpace=wrap;html=1;fillColor=none;" parent="1" vertex="1">
          <mxGeometry x="380" y="1280" width="380" height="20" as="geometry" />
        </mxCell>
        <mxCell id="q0sa2IvHLagkZVXANvXT-45" value="Exit conditions" style="rounded=0;whiteSpace=wrap;html=1;fillColor=none;" parent="1" vertex="1">
          <mxGeometry x="280" y="1300" width="100" height="20" as="geometry" />
        </mxCell>
        <mxCell id="q0sa2IvHLagkZVXANvXT-46" value="User either signs up successfully or cancels the process" style="rounded=0;whiteSpace=wrap;html=1;fillColor=none;" parent="1" vertex="1">
          <mxGeometry x="380" y="1300" width="380" height="20" as="geometry" />
        </mxCell>
        <mxCell id="25p_WsbpWHURiKa320EH-3" value="" style="html=1;overflow=block;blockSpacing=1;whiteSpace=wrap;container=1;pointerEvents=0;collapsible=0;recursiveResize=0;fontSize=16.7;fontColor=#3a414a;spacing=0;strokeColor=#3a414a;strokeOpacity=100;fillOpacity=0;rounded=1;absoluteArcSize=1;arcSize=9;fillColor=#000000;strokeWidth=0.8;lucidId=N~JHaBFP2N3E;" parent="1" vertex="1">
          <mxGeometry x="2455" y="1740" width="765" height="765" as="geometry" />
        </mxCell>
        <mxCell id="25p_WsbpWHURiKa320EH-81" value="Open view access" style="ellipse;whiteSpace=wrap;html=1;fontSize=16;" parent="25p_WsbpWHURiKa320EH-3" vertex="1">
          <mxGeometry x="65" y="300" width="120" height="80" as="geometry" />
        </mxCell>
        <mxCell id="naNYfocV4EcByCn_tp5l-10" value="Go back" style="ellipse;whiteSpace=wrap;html=1;fontSize=16;" parent="25p_WsbpWHURiKa320EH-3" vertex="1">
          <mxGeometry x="65" y="50" width="120" height="80" as="geometry" />
        </mxCell>
        <mxCell id="naNYfocV4EcByCn_tp5l-11" value="Open username tab" style="ellipse;whiteSpace=wrap;html=1;fontSize=16;" parent="25p_WsbpWHURiKa320EH-3" vertex="1">
          <mxGeometry x="295" y="50" width="120" height="80" as="geometry" />
        </mxCell>
        <mxCell id="naNYfocV4EcByCn_tp5l-12" value="Leaf through the layout&amp;nbsp;" style="ellipse;whiteSpace=wrap;html=1;fontSize=16;" parent="25p_WsbpWHURiKa320EH-3" vertex="1">
          <mxGeometry x="65" y="568" width="130" height="86" as="geometry" />
        </mxCell>
        <mxCell id="naNYfocV4EcByCn_tp5l-13" value="Show access" style="ellipse;whiteSpace=wrap;html=1;fontSize=16;" parent="25p_WsbpWHURiKa320EH-3" vertex="1">
          <mxGeometry x="329" y="574" width="120" height="80" as="geometry" />
        </mxCell>
        <mxCell id="naNYfocV4EcByCn_tp5l-14" value="Confirm changing&amp;nbsp;" style="ellipse;whiteSpace=wrap;html=1;fontSize=16;" parent="25p_WsbpWHURiKa320EH-3" vertex="1">
          <mxGeometry x="585" y="460" width="120" height="80" as="geometry" />
        </mxCell>
        <mxCell id="naNYfocV4EcByCn_tp5l-15" value="Edit access" style="ellipse;whiteSpace=wrap;html=1;fontSize=16;" parent="25p_WsbpWHURiKa320EH-3" vertex="1">
          <mxGeometry x="389" y="250" width="120" height="80" as="geometry" />
        </mxCell>
        <mxCell id="naNYfocV4EcByCn_tp5l-16" value="Cancel editing" style="ellipse;whiteSpace=wrap;html=1;fontSize=16;" parent="25p_WsbpWHURiKa320EH-3" vertex="1">
          <mxGeometry x="565" y="80" width="120" height="80" as="geometry" />
        </mxCell>
        <mxCell id="naNYfocV4EcByCn_tp5l-17" value="Change data" style="ellipse;whiteSpace=wrap;html=1;fontSize=16;" parent="25p_WsbpWHURiKa320EH-3" vertex="1">
          <mxGeometry x="585" y="300" width="120" height="80" as="geometry" />
        </mxCell>
        <mxCell id="naNYfocV4EcByCn_tp5l-18" value="Data saved&amp;nbsp;" style="ellipse;whiteSpace=wrap;html=1;fontSize=16;" parent="25p_WsbpWHURiKa320EH-3" vertex="1">
          <mxGeometry x="585" y="680" width="120" height="80" as="geometry" />
        </mxCell>
        <mxCell id="naNYfocV4EcByCn_tp5l-24" value="" style="endArrow=classic;html=1;rounded=0;entryX=0.5;entryY=1;entryDx=0;entryDy=0;exitX=0.5;exitY=0;exitDx=0;exitDy=0;" parent="25p_WsbpWHURiKa320EH-3" source="25p_WsbpWHURiKa320EH-81" target="naNYfocV4EcByCn_tp5l-10" edge="1">
          <mxGeometry width="50" height="50" relative="1" as="geometry">
            <mxPoint x="-95" y="510" as="sourcePoint" />
            <mxPoint x="-45" y="460" as="targetPoint" />
          </mxGeometry>
        </mxCell>
        <mxCell id="naNYfocV4EcByCn_tp5l-25" value="" style="endArrow=classic;html=1;rounded=0;entryX=0;entryY=1;entryDx=0;entryDy=0;" parent="25p_WsbpWHURiKa320EH-3" source="25p_WsbpWHURiKa320EH-81" target="naNYfocV4EcByCn_tp5l-11" edge="1">
          <mxGeometry width="50" height="50" relative="1" as="geometry">
            <mxPoint x="-95" y="510" as="sourcePoint" />
            <mxPoint x="-45" y="460" as="targetPoint" />
          </mxGeometry>
        </mxCell>
        <mxCell id="naNYfocV4EcByCn_tp5l-26" value="" style="endArrow=classic;html=1;rounded=0;exitX=1;exitY=0.5;exitDx=0;exitDy=0;" parent="25p_WsbpWHURiKa320EH-3" source="25p_WsbpWHURiKa320EH-81" target="naNYfocV4EcByCn_tp5l-15" edge="1">
          <mxGeometry width="50" height="50" relative="1" as="geometry">
            <mxPoint x="-95" y="510" as="sourcePoint" />
            <mxPoint x="-45" y="460" as="targetPoint" />
          </mxGeometry>
        </mxCell>
        <mxCell id="naNYfocV4EcByCn_tp5l-27" value="" style="endArrow=classic;startArrow=classic;html=1;rounded=0;exitX=0;exitY=1;exitDx=0;exitDy=0;entryX=1;entryY=0;entryDx=0;entryDy=0;" parent="25p_WsbpWHURiKa320EH-3" source="naNYfocV4EcByCn_tp5l-16" target="naNYfocV4EcByCn_tp5l-15" edge="1">
          <mxGeometry width="50" height="50" relative="1" as="geometry">
            <mxPoint x="-95" y="510" as="sourcePoint" />
            <mxPoint x="-45" y="460" as="targetPoint" />
          </mxGeometry>
        </mxCell>
        <mxCell id="naNYfocV4EcByCn_tp5l-28" value="" style="endArrow=classic;html=1;rounded=0;entryX=0;entryY=0.5;entryDx=0;entryDy=0;exitX=0.935;exitY=0.836;exitDx=0;exitDy=0;exitPerimeter=0;" parent="25p_WsbpWHURiKa320EH-3" source="naNYfocV4EcByCn_tp5l-15" target="naNYfocV4EcByCn_tp5l-17" edge="1">
          <mxGeometry width="50" height="50" relative="1" as="geometry">
            <mxPoint x="-95" y="510" as="sourcePoint" />
            <mxPoint x="-45" y="460" as="targetPoint" />
          </mxGeometry>
        </mxCell>
        <mxCell id="naNYfocV4EcByCn_tp5l-29" value="" style="endArrow=classic;html=1;rounded=0;entryX=0.5;entryY=1;entryDx=0;entryDy=0;" parent="25p_WsbpWHURiKa320EH-3" source="naNYfocV4EcByCn_tp5l-17" target="naNYfocV4EcByCn_tp5l-16" edge="1">
          <mxGeometry width="50" height="50" relative="1" as="geometry">
            <mxPoint x="-95" y="510" as="sourcePoint" />
            <mxPoint x="-45" y="460" as="targetPoint" />
          </mxGeometry>
        </mxCell>
        <mxCell id="naNYfocV4EcByCn_tp5l-30" value="" style="endArrow=classic;html=1;rounded=0;entryX=0.5;entryY=0;entryDx=0;entryDy=0;" parent="25p_WsbpWHURiKa320EH-3" source="naNYfocV4EcByCn_tp5l-17" target="naNYfocV4EcByCn_tp5l-14" edge="1">
          <mxGeometry width="50" height="50" relative="1" as="geometry">
            <mxPoint x="-95" y="510" as="sourcePoint" />
            <mxPoint x="-45" y="460" as="targetPoint" />
          </mxGeometry>
        </mxCell>
        <mxCell id="naNYfocV4EcByCn_tp5l-31" value="" style="endArrow=classic;html=1;rounded=0;entryX=0.5;entryY=0;entryDx=0;entryDy=0;exitX=0.5;exitY=1;exitDx=0;exitDy=0;" parent="25p_WsbpWHURiKa320EH-3" source="25p_WsbpWHURiKa320EH-81" target="naNYfocV4EcByCn_tp5l-12" edge="1">
          <mxGeometry width="50" height="50" relative="1" as="geometry">
            <mxPoint x="-95" y="510" as="sourcePoint" />
            <mxPoint x="-45" y="460" as="targetPoint" />
          </mxGeometry>
        </mxCell>
        <mxCell id="naNYfocV4EcByCn_tp5l-32" value="" style="endArrow=none;dashed=1;html=1;rounded=0;entryX=1;entryY=1;entryDx=0;entryDy=0;exitX=0;exitY=0;exitDx=0;exitDy=0;startArrow=classic;startFill=1;" parent="25p_WsbpWHURiKa320EH-3" source="naNYfocV4EcByCn_tp5l-13" target="25p_WsbpWHURiKa320EH-81" edge="1">
          <mxGeometry width="50" height="50" relative="1" as="geometry">
            <mxPoint x="-95" y="510" as="sourcePoint" />
            <mxPoint x="-45" y="460" as="targetPoint" />
          </mxGeometry>
        </mxCell>
        <mxCell id="naNYfocV4EcByCn_tp5l-42" value="&lt;font style=&quot;font-size: 16px;&quot;&gt;&quot;include&quot;&lt;/font&gt;" style="edgeLabel;html=1;align=center;verticalAlign=middle;resizable=0;points=[];" parent="naNYfocV4EcByCn_tp5l-32" vertex="1" connectable="0">
          <mxGeometry x="-0.0954" y="-1" relative="1" as="geometry">
            <mxPoint as="offset" />
          </mxGeometry>
        </mxCell>
        <mxCell id="naNYfocV4EcByCn_tp5l-33" value="" style="endArrow=none;dashed=1;html=1;rounded=0;startArrow=classic;startFill=1;entryX=0;entryY=0.5;entryDx=0;entryDy=0;" parent="25p_WsbpWHURiKa320EH-3" source="naNYfocV4EcByCn_tp5l-12" target="naNYfocV4EcByCn_tp5l-13" edge="1">
          <mxGeometry width="50" height="50" relative="1" as="geometry">
            <mxPoint x="-95" y="510" as="sourcePoint" />
            <mxPoint x="-45" y="460" as="targetPoint" />
            <Array as="points" />
          </mxGeometry>
        </mxCell>
        <mxCell id="naNYfocV4EcByCn_tp5l-40" value="&quot;extend&quot;" style="edgeLabel;html=1;align=center;verticalAlign=middle;resizable=0;points=[];fontSize=16;" parent="naNYfocV4EcByCn_tp5l-33" vertex="1" connectable="0">
          <mxGeometry x="-0.1643" y="1" relative="1" as="geometry">
            <mxPoint as="offset" />
          </mxGeometry>
        </mxCell>
        <mxCell id="naNYfocV4EcByCn_tp5l-34" value="" style="endArrow=none;dashed=1;html=1;rounded=0;startArrow=classic;startFill=1;entryX=0.5;entryY=0;entryDx=0;entryDy=0;" parent="25p_WsbpWHURiKa320EH-3" edge="1">
          <mxGeometry width="50" height="50" relative="1" as="geometry">
            <mxPoint x="644.17" y="540" as="sourcePoint" />
            <mxPoint x="644.17" y="680" as="targetPoint" />
          </mxGeometry>
        </mxCell>
        <mxCell id="naNYfocV4EcByCn_tp5l-41" value="&lt;font style=&quot;font-size: 16px;&quot;&gt;&quot;extend&quot;&lt;/font&gt;" style="edgeLabel;html=1;align=center;verticalAlign=middle;resizable=0;points=[];" parent="naNYfocV4EcByCn_tp5l-34" vertex="1" connectable="0">
          <mxGeometry x="-0.1037" y="1" relative="1" as="geometry">
            <mxPoint as="offset" />
          </mxGeometry>
        </mxCell>
        <mxCell id="naNYfocV4EcByCn_tp5l-35" value="" style="endArrow=none;dashed=1;html=1;rounded=0;startArrow=classic;startFill=1;entryX=0;entryY=0.5;entryDx=0;entryDy=0;" parent="25p_WsbpWHURiKa320EH-3" source="25p_WsbpWHURiKa320EH-81" target="naNYfocV4EcByCn_tp5l-14" edge="1">
          <mxGeometry width="50" height="50" relative="1" as="geometry">
            <mxPoint x="45" y="520" as="sourcePoint" />
            <mxPoint x="95" y="470" as="targetPoint" />
          </mxGeometry>
        </mxCell>
        <mxCell id="naNYfocV4EcByCn_tp5l-43" value="&lt;font style=&quot;font-size: 16px;&quot;&gt;&quot;extend&quot;&lt;/font&gt;" style="edgeLabel;html=1;align=center;verticalAlign=middle;resizable=0;points=[];" parent="naNYfocV4EcByCn_tp5l-35" vertex="1" connectable="0">
          <mxGeometry x="0.1019" y="-1" relative="1" as="geometry">
            <mxPoint as="offset" />
          </mxGeometry>
        </mxCell>
        <mxCell id="naNYfocV4EcByCn_tp5l-44" value="automatic saving" style="rounded=0;whiteSpace=wrap;html=1;" parent="25p_WsbpWHURiKa320EH-3" vertex="1">
          <mxGeometry x="445" y="530" width="120" height="60" as="geometry" />
        </mxCell>
        <mxCell id="naNYfocV4EcByCn_tp5l-45" value="Scrolling shows more records" style="rounded=0;whiteSpace=wrap;html=1;" parent="25p_WsbpWHURiKa320EH-3" vertex="1">
          <mxGeometry x="5" y="490" width="120" height="60" as="geometry" />
        </mxCell>
        <mxCell id="Qu9oQcRNyt_EFON5Fd7M-5" value="" style="endArrow=none;dashed=1;html=1;rounded=0;startArrow=classic;startFill=1;entryX=0;entryY=0;entryDx=0;entryDy=0;exitX=1;exitY=0.5;exitDx=0;exitDy=0;" parent="25p_WsbpWHURiKa320EH-3" source="naNYfocV4EcByCn_tp5l-13" target="naNYfocV4EcByCn_tp5l-18" edge="1">
          <mxGeometry width="50" height="50" relative="1" as="geometry">
            <mxPoint x="525" y="580" as="sourcePoint" />
            <mxPoint x="525" y="720" as="targetPoint" />
          </mxGeometry>
        </mxCell>
        <mxCell id="Qu9oQcRNyt_EFON5Fd7M-6" value="&lt;font style=&quot;font-size: 16px;&quot;&gt;&quot;extend&quot;&lt;/font&gt;" style="edgeLabel;html=1;align=center;verticalAlign=middle;resizable=0;points=[];" parent="Qu9oQcRNyt_EFON5Fd7M-5" vertex="1" connectable="0">
          <mxGeometry x="-0.1037" y="1" relative="1" as="geometry">
            <mxPoint as="offset" />
          </mxGeometry>
        </mxCell>
        <mxCell id="Qu9oQcRNyt_EFON5Fd7M-44" value="Can not edit id" style="rounded=0;whiteSpace=wrap;html=1;" parent="25p_WsbpWHURiKa320EH-3" vertex="1">
          <mxGeometry x="449" y="370" width="120" height="60" as="geometry" />
        </mxCell>
        <mxCell id="Qu9oQcRNyt_EFON5Fd7M-46" value="Changed data does not changes" style="rounded=0;whiteSpace=wrap;html=1;" parent="25p_WsbpWHURiKa320EH-3" vertex="1">
          <mxGeometry x="645" y="170" width="120" height="60" as="geometry" />
        </mxCell>
        <mxCell id="Qu9oQcRNyt_EFON5Fd7M-47" value="" style="endArrow=none;dashed=1;html=1;rounded=0;" parent="25p_WsbpWHURiKa320EH-3" edge="1">
          <mxGeometry width="50" height="50" relative="1" as="geometry">
            <mxPoint x="635" y="280" as="sourcePoint" />
            <mxPoint x="695" y="230" as="targetPoint" />
          </mxGeometry>
        </mxCell>
        <mxCell id="25p_WsbpWHURiKa320EH-7" value="" style="html=1;overflow=block;blockSpacing=1;whiteSpace=wrap;container=1;pointerEvents=0;collapsible=0;recursiveResize=0;fontSize=16.7;fontColor=#3a414a;spacing=0;strokeColor=#3a414a;strokeOpacity=100;fillOpacity=0;rounded=1;absoluteArcSize=1;arcSize=9;fillColor=#000000;strokeWidth=0.8;lucidId=N~JHaBFP2N3E;" parent="1" vertex="1">
          <mxGeometry x="299" y="1690" width="750" height="765" as="geometry" />
        </mxCell>
        <mxCell id="25p_WsbpWHURiKa320EH-14" value="Open user tab" style="ellipse;whiteSpace=wrap;html=1;fontSize=16;" parent="25p_WsbpWHURiKa320EH-7" vertex="1">
          <mxGeometry x="310.5" y="330" width="120" height="80" as="geometry" />
        </mxCell>
        <mxCell id="25p_WsbpWHURiKa320EH-15" value="Go back" style="ellipse;whiteSpace=wrap;html=1;fontSize=16;" parent="25p_WsbpWHURiKa320EH-7" vertex="1">
          <mxGeometry x="310.5" y="90" width="120" height="80" as="geometry" />
        </mxCell>
        <mxCell id="25p_WsbpWHURiKa320EH-17" value="Read&amp;nbsp;info" style="ellipse;whiteSpace=wrap;html=1;fontSize=16;" parent="25p_WsbpWHURiKa320EH-7" vertex="1">
          <mxGeometry x="540.5" y="70" width="155" height="100" as="geometry" />
        </mxCell>
        <mxCell id="25p_WsbpWHURiKa320EH-18" value="Write additional information&amp;nbsp;" style="ellipse;whiteSpace=wrap;html=1;fontSize=16;" parent="25p_WsbpWHURiKa320EH-7" vertex="1">
          <mxGeometry x="493.5" y="450" width="120" height="80" as="geometry" />
        </mxCell>
        <mxCell id="25p_WsbpWHURiKa320EH-20" value="Change data" style="ellipse;whiteSpace=wrap;html=1;fontSize=16;" parent="25p_WsbpWHURiKa320EH-7" vertex="1">
          <mxGeometry x="583.5" y="680" width="120" height="80" as="geometry" />
        </mxCell>
        <mxCell id="25p_WsbpWHURiKa320EH-19" value="Change existing info" style="ellipse;whiteSpace=wrap;html=1;fontSize=16;" parent="25p_WsbpWHURiKa320EH-7" vertex="1">
          <mxGeometry x="280.5" y="570" width="120" height="80" as="geometry" />
        </mxCell>
        <mxCell id="25p_WsbpWHURiKa320EH-29" value="" style="endArrow=classic;html=1;rounded=0;fontSize=12;startSize=8;endSize=8;curved=1;" parent="25p_WsbpWHURiKa320EH-7" edge="1">
          <mxGeometry width="50" height="50" relative="1" as="geometry">
            <mxPoint x="593.5" y="180" as="sourcePoint" />
            <mxPoint x="603.5" y="170" as="targetPoint" />
          </mxGeometry>
        </mxCell>
        <mxCell id="25p_WsbpWHURiKa320EH-28" value="&lt;font style=&quot;font-size: 17px;&quot;&gt;&quot;&lt;/font&gt;&lt;font style=&quot;font-size: 18px;&quot;&gt;includes&lt;/font&gt;&lt;font style=&quot;font-size: 18px;&quot;&gt;&quot;&lt;/font&gt;" style="endArrow=none;dashed=1;html=1;rounded=0;fontSize=12;startSize=8;endSize=8;curved=1;exitX=1;exitY=0;exitDx=0;exitDy=0;" parent="25p_WsbpWHURiKa320EH-7" source="25p_WsbpWHURiKa320EH-14" edge="1">
          <mxGeometry width="50" height="50" relative="1" as="geometry">
            <mxPoint x="413.5" y="340" as="sourcePoint" />
            <mxPoint x="603.5" y="170" as="targetPoint" />
          </mxGeometry>
        </mxCell>
        <mxCell id="25p_WsbpWHURiKa320EH-23" value="" style="endArrow=classic;html=1;rounded=0;fontSize=12;startSize=8;endSize=8;curved=1;entryX=0.5;entryY=1;entryDx=0;entryDy=0;exitX=0.5;exitY=0;exitDx=0;exitDy=0;" parent="25p_WsbpWHURiKa320EH-7" source="25p_WsbpWHURiKa320EH-14" target="25p_WsbpWHURiKa320EH-15" edge="1">
          <mxGeometry width="50" height="50" relative="1" as="geometry">
            <mxPoint x="363.5" y="220" as="sourcePoint" />
            <mxPoint x="433.5" y="230" as="targetPoint" />
          </mxGeometry>
        </mxCell>
        <mxCell id="25p_WsbpWHURiKa320EH-40" value="" style="endArrow=none;dashed=1;html=1;rounded=0;fontSize=12;startSize=8;endSize=8;curved=1;entryX=0.5;entryY=0;entryDx=0;entryDy=0;" parent="25p_WsbpWHURiKa320EH-7" target="25p_WsbpWHURiKa320EH-20" edge="1">
          <mxGeometry width="50" height="50" relative="1" as="geometry">
            <mxPoint x="613.5" y="510" as="sourcePoint" />
            <mxPoint x="663.5" y="550" as="targetPoint" />
          </mxGeometry>
        </mxCell>
        <mxCell id="25p_WsbpWHURiKa320EH-42" value="“extend”" style="edgeLabel;html=1;align=center;verticalAlign=middle;resizable=0;points=[];fontSize=16;" parent="25p_WsbpWHURiKa320EH-40" vertex="1" connectable="0">
          <mxGeometry x="0.0696" y="2" relative="1" as="geometry">
            <mxPoint as="offset" />
          </mxGeometry>
        </mxCell>
        <mxCell id="naNYfocV4EcByCn_tp5l-3" value="User see changed info" style="rounded=0;whiteSpace=wrap;html=1;" parent="25p_WsbpWHURiKa320EH-7" vertex="1">
          <mxGeometry x="453.5" y="570" width="120" height="60" as="geometry" />
        </mxCell>
        <mxCell id="Qu9oQcRNyt_EFON5Fd7M-20" value="Impossible to change&lt;br&gt;email" style="rounded=1;whiteSpace=wrap;html=1;dashed=1;strokeColor=#000000;" parent="25p_WsbpWHURiKa320EH-7" vertex="1">
          <mxGeometry x="546.5" y="350" width="120" height="60" as="geometry" />
        </mxCell>
        <mxCell id="Qu9oQcRNyt_EFON5Fd7M-21" value="" style="endArrow=classic;html=1;rounded=0;exitX=0.939;exitY=0.213;exitDx=0;exitDy=0;exitPerimeter=0;entryX=0.053;entryY=0.713;entryDx=0;entryDy=0;entryPerimeter=0;" parent="25p_WsbpWHURiKa320EH-7" source="25p_WsbpWHURiKa320EH-19" target="25p_WsbpWHURiKa320EH-18" edge="1">
          <mxGeometry width="50" height="50" relative="1" as="geometry">
            <mxPoint x="496.5" y="490" as="sourcePoint" />
            <mxPoint x="546.5" y="440" as="targetPoint" />
          </mxGeometry>
        </mxCell>
        <mxCell id="25p_WsbpWHURiKa320EH-9" value="User" style="shape=umlActor;verticalLabelPosition=bottom;verticalAlign=top;html=1;outlineConnect=0;fontSize=16;" parent="25p_WsbpWHURiKa320EH-7" vertex="1">
          <mxGeometry x="53.5" width="100" height="160" as="geometry" />
        </mxCell>
        <mxCell id="25p_WsbpWHURiKa320EH-10" value="Admin" style="shape=umlActor;verticalLabelPosition=bottom;verticalAlign=top;html=1;outlineConnect=0;fontSize=16;" parent="25p_WsbpWHURiKa320EH-7" vertex="1">
          <mxGeometry x="46.5" y="350" width="100" height="160" as="geometry" />
        </mxCell>
        <mxCell id="25p_WsbpWHURiKa320EH-21" value="" style="endArrow=classic;html=1;rounded=0;fontSize=12;startSize=8;endSize=8;curved=1;entryX=0;entryY=1;entryDx=0;entryDy=0;exitX=0.5;exitY=0.5;exitDx=0;exitDy=0;exitPerimeter=0;" parent="25p_WsbpWHURiKa320EH-7" source="25p_WsbpWHURiKa320EH-10" target="25p_WsbpWHURiKa320EH-14" edge="1">
          <mxGeometry width="50" height="50" relative="1" as="geometry">
            <mxPoint x="203.5" y="370" as="sourcePoint" />
            <mxPoint x="253.5" y="320" as="targetPoint" />
          </mxGeometry>
        </mxCell>
        <mxCell id="25p_WsbpWHURiKa320EH-22" value="" style="endArrow=classic;html=1;rounded=0;fontSize=12;startSize=8;endSize=8;curved=1;entryX=0;entryY=0;entryDx=0;entryDy=0;exitX=0.5;exitY=0.5;exitDx=0;exitDy=0;exitPerimeter=0;" parent="25p_WsbpWHURiKa320EH-7" source="25p_WsbpWHURiKa320EH-9" target="25p_WsbpWHURiKa320EH-14" edge="1">
          <mxGeometry width="50" height="50" relative="1" as="geometry">
            <mxPoint x="203.5" y="370" as="sourcePoint" />
            <mxPoint x="253.5" y="320" as="targetPoint" />
          </mxGeometry>
        </mxCell>
        <mxCell id="25p_WsbpWHURiKa320EH-41" value="" style="endArrow=classic;html=1;rounded=0;fontSize=12;startSize=8;endSize=8;curved=1;entryX=1;entryY=0.625;entryDx=0;entryDy=0;entryPerimeter=0;" parent="25p_WsbpWHURiKa320EH-7" target="25p_WsbpWHURiKa320EH-18" edge="1">
          <mxGeometry width="50" height="50" relative="1" as="geometry">
            <mxPoint x="613.5" y="510" as="sourcePoint" />
            <mxPoint x="613.5" y="500" as="targetPoint" />
          </mxGeometry>
        </mxCell>
        <mxCell id="25p_WsbpWHURiKa320EH-43" value="" style="endArrow=classic;html=1;rounded=0;fontSize=12;startSize=8;endSize=8;curved=1;entryX=0.5;entryY=0;entryDx=0;entryDy=0;" parent="25p_WsbpWHURiKa320EH-7" target="25p_WsbpWHURiKa320EH-19" edge="1">
          <mxGeometry width="50" height="50" relative="1" as="geometry">
            <mxPoint x="363.5" y="410" as="sourcePoint" />
            <mxPoint x="443.5" y="660" as="targetPoint" />
          </mxGeometry>
        </mxCell>
        <mxCell id="naNYfocV4EcByCn_tp5l-4" value="" style="endArrow=none;dashed=1;html=1;rounded=0;" parent="25p_WsbpWHURiKa320EH-7" target="naNYfocV4EcByCn_tp5l-3" edge="1">
          <mxGeometry width="50" height="50" relative="1" as="geometry">
            <mxPoint x="556.5" y="710" as="sourcePoint" />
            <mxPoint x="623.5" y="560" as="targetPoint" />
          </mxGeometry>
        </mxCell>
        <mxCell id="naNYfocV4EcByCn_tp5l-5" value="" style="endArrow=none;dashed=1;html=1;rounded=0;" parent="25p_WsbpWHURiKa320EH-7" edge="1">
          <mxGeometry width="50" height="50" relative="1" as="geometry">
            <mxPoint x="573.5" y="610" as="sourcePoint" />
            <mxPoint x="623.5" y="560" as="targetPoint" />
          </mxGeometry>
        </mxCell>
        <mxCell id="Qu9oQcRNyt_EFON5Fd7M-19" value="" style="endArrow=none;dashed=1;html=1;dashPattern=1 3;strokeWidth=2;rounded=0;" parent="25p_WsbpWHURiKa320EH-7" target="Qu9oQcRNyt_EFON5Fd7M-20" edge="1">
          <mxGeometry width="50" height="50" relative="1" as="geometry">
            <mxPoint x="356.5" y="470" as="sourcePoint" />
            <mxPoint x="546.5" y="400" as="targetPoint" />
          </mxGeometry>
        </mxCell>
        <mxCell id="Qu9oQcRNyt_EFON5Fd7M-22" value="" style="endArrow=classic;html=1;rounded=0;entryX=0.779;entryY=0.932;entryDx=0;entryDy=0;entryPerimeter=0;exitX=0;exitY=0.5;exitDx=0;exitDy=0;dashed=1;" parent="25p_WsbpWHURiKa320EH-7" source="25p_WsbpWHURiKa320EH-20" target="25p_WsbpWHURiKa320EH-19" edge="1">
          <mxGeometry width="50" height="50" relative="1" as="geometry">
            <mxPoint x="381" y="460" as="sourcePoint" />
            <mxPoint x="431" y="410" as="targetPoint" />
          </mxGeometry>
        </mxCell>
        <mxCell id="Qu9oQcRNyt_EFON5Fd7M-23" value="&quot;extend&quot;" style="edgeLabel;html=1;align=center;verticalAlign=middle;resizable=0;points=[];fontSize=17;" parent="Qu9oQcRNyt_EFON5Fd7M-22" vertex="1" connectable="0">
          <mxGeometry x="0.204" y="2" relative="1" as="geometry">
            <mxPoint as="offset" />
          </mxGeometry>
        </mxCell>
        <mxCell id="25p_WsbpWHURiKa320EH-13" value="View/edit access" style="html=1;overflow=block;blockSpacing=1;whiteSpace=wrap;fontSize=16.7;fontColor=#3a414a;spacing=3.8;strokeColor=#3a414a;strokeOpacity=100;fillOpacity=0;rounded=1;absoluteArcSize=1;arcSize=9;fillColor=#000000;strokeWidth=0.8;lucidId=YAnCTzveyhfe;" parent="1" vertex="1">
          <mxGeometry x="2770" y="1710" width="135" height="30" as="geometry" />
        </mxCell>
        <mxCell id="25p_WsbpWHURiKa320EH-47" value="Admin" style="shape=umlActor;verticalLabelPosition=bottom;verticalAlign=top;html=1;outlineConnect=0;fontSize=16;" parent="1" vertex="1">
          <mxGeometry x="1320" y="1970" width="100" height="160" as="geometry" />
        </mxCell>
        <mxCell id="25p_WsbpWHURiKa320EH-79" value="" style="group;fillColor=none;" parent="1" vertex="1" connectable="0">
          <mxGeometry x="1455" y="1727.5" width="830" height="790" as="geometry" />
        </mxCell>
        <mxCell id="25p_WsbpWHURiKa320EH-5" value="" style="html=1;overflow=block;blockSpacing=1;whiteSpace=wrap;container=1;pointerEvents=0;collapsible=0;recursiveResize=0;fontSize=16.7;fontColor=#3a414a;spacing=0;strokeColor=#3a414a;strokeOpacity=100;fillOpacity=0;rounded=1;absoluteArcSize=1;arcSize=9;fillColor=#000000;strokeWidth=0.8;lucidId=N~JHaBFP2N3E;" parent="25p_WsbpWHURiKa320EH-79" vertex="1">
          <mxGeometry y="30" width="830" height="760" as="geometry" />
        </mxCell>
        <mxCell id="25p_WsbpWHURiKa320EH-48" value="Open view records" style="ellipse;whiteSpace=wrap;html=1;fontSize=16;" parent="25p_WsbpWHURiKa320EH-5" vertex="1">
          <mxGeometry x="80" y="270" width="120" height="80" as="geometry" />
        </mxCell>
        <mxCell id="25p_WsbpWHURiKa320EH-49" value="Show records" style="ellipse;whiteSpace=wrap;html=1;fontSize=16;" parent="25p_WsbpWHURiKa320EH-5" vertex="1">
          <mxGeometry x="340" y="530" width="120" height="80" as="geometry" />
        </mxCell>
        <mxCell id="25p_WsbpWHURiKa320EH-50" value="Leaf through the layout&amp;nbsp;" style="ellipse;whiteSpace=wrap;html=1;fontSize=16;" parent="25p_WsbpWHURiKa320EH-5" vertex="1">
          <mxGeometry x="75" y="554" width="130" height="86" as="geometry" />
        </mxCell>
        <mxCell id="25p_WsbpWHURiKa320EH-51" value="Go back" style="ellipse;whiteSpace=wrap;html=1;fontSize=16;" parent="25p_WsbpWHURiKa320EH-5" vertex="1">
          <mxGeometry x="80" y="40" width="120" height="80" as="geometry" />
        </mxCell>
        <mxCell id="25p_WsbpWHURiKa320EH-52" value="Open username tab" style="ellipse;whiteSpace=wrap;html=1;fontSize=16;" parent="25p_WsbpWHURiKa320EH-5" vertex="1">
          <mxGeometry x="290" y="49" width="120" height="80" as="geometry" />
        </mxCell>
        <mxCell id="25p_WsbpWHURiKa320EH-55" value="Cancel editing" style="ellipse;whiteSpace=wrap;html=1;fontSize=16;" parent="25p_WsbpWHURiKa320EH-5" vertex="1">
          <mxGeometry x="590" y="60" width="120" height="80" as="geometry" />
        </mxCell>
        <mxCell id="25p_WsbpWHURiKa320EH-54" value="Change data" style="ellipse;whiteSpace=wrap;html=1;fontSize=16;" parent="25p_WsbpWHURiKa320EH-5" vertex="1">
          <mxGeometry x="590" y="330" width="120" height="80" as="geometry" />
        </mxCell>
        <mxCell id="25p_WsbpWHURiKa320EH-56" value="Confirm changing&amp;nbsp;" style="ellipse;whiteSpace=wrap;html=1;fontSize=16;" parent="25p_WsbpWHURiKa320EH-5" vertex="1">
          <mxGeometry x="590" y="480" width="120" height="80" as="geometry" />
        </mxCell>
        <mxCell id="25p_WsbpWHURiKa320EH-57" value="Data saved&amp;nbsp;" style="ellipse;whiteSpace=wrap;html=1;fontSize=16;" parent="25p_WsbpWHURiKa320EH-5" vertex="1">
          <mxGeometry x="590" y="650" width="120" height="80" as="geometry" />
        </mxCell>
        <mxCell id="25p_WsbpWHURiKa320EH-59" value="" style="endArrow=classic;html=1;rounded=0;fontSize=12;startSize=8;endSize=8;curved=1;exitX=0.5;exitY=1;exitDx=0;exitDy=0;entryX=0.5;entryY=0;entryDx=0;entryDy=0;" parent="25p_WsbpWHURiKa320EH-5" source="25p_WsbpWHURiKa320EH-48" target="25p_WsbpWHURiKa320EH-50" edge="1">
          <mxGeometry width="50" height="50" relative="1" as="geometry">
            <mxPoint x="210" y="460" as="sourcePoint" />
            <mxPoint x="260" y="410" as="targetPoint" />
          </mxGeometry>
        </mxCell>
        <mxCell id="25p_WsbpWHURiKa320EH-60" value="" style="endArrow=none;dashed=1;html=1;rounded=0;fontSize=12;curved=1;entryX=1;entryY=1;entryDx=0;entryDy=0;exitX=0;exitY=0;exitDx=0;exitDy=0;startArrow=classic;startFill=1;" parent="25p_WsbpWHURiKa320EH-5" source="25p_WsbpWHURiKa320EH-49" target="25p_WsbpWHURiKa320EH-48" edge="1">
          <mxGeometry width="50" height="50" relative="1" as="geometry">
            <mxPoint x="210" y="460" as="sourcePoint" />
            <mxPoint x="260" y="410" as="targetPoint" />
          </mxGeometry>
        </mxCell>
        <mxCell id="25p_WsbpWHURiKa320EH-61" value="“include”" style="edgeLabel;html=1;align=center;verticalAlign=middle;resizable=0;points=[];fontSize=16;" parent="25p_WsbpWHURiKa320EH-60" vertex="1" connectable="0">
          <mxGeometry x="-0.1517" y="1" relative="1" as="geometry">
            <mxPoint as="offset" />
          </mxGeometry>
        </mxCell>
        <mxCell id="25p_WsbpWHURiKa320EH-62" value="" style="endArrow=none;dashed=1;html=1;rounded=0;fontSize=12;startSize=8;endSize=8;curved=1;exitX=1;exitY=0.5;exitDx=0;exitDy=0;entryX=0;entryY=1;entryDx=0;entryDy=0;startArrow=classic;startFill=1;" parent="25p_WsbpWHURiKa320EH-5" source="25p_WsbpWHURiKa320EH-50" target="25p_WsbpWHURiKa320EH-49" edge="1">
          <mxGeometry width="50" height="50" relative="1" as="geometry">
            <mxPoint x="190" y="440" as="sourcePoint" />
            <mxPoint x="240" y="390" as="targetPoint" />
          </mxGeometry>
        </mxCell>
        <mxCell id="25p_WsbpWHURiKa320EH-74" value="“extend”" style="edgeLabel;html=1;align=center;verticalAlign=middle;resizable=0;points=[];fontSize=16;" parent="25p_WsbpWHURiKa320EH-62" vertex="1" connectable="0">
          <mxGeometry x="0.0704" y="-3" relative="1" as="geometry">
            <mxPoint as="offset" />
          </mxGeometry>
        </mxCell>
        <mxCell id="25p_WsbpWHURiKa320EH-63" value="" style="endArrow=classic;html=1;rounded=0;fontSize=12;startSize=8;endSize=8;curved=1;entryX=0.5;entryY=1;entryDx=0;entryDy=0;exitX=0.5;exitY=0;exitDx=0;exitDy=0;" parent="25p_WsbpWHURiKa320EH-5" source="25p_WsbpWHURiKa320EH-48" target="25p_WsbpWHURiKa320EH-51" edge="1">
          <mxGeometry width="50" height="50" relative="1" as="geometry">
            <mxPoint x="190" y="410" as="sourcePoint" />
            <mxPoint x="240" y="360" as="targetPoint" />
          </mxGeometry>
        </mxCell>
        <mxCell id="25p_WsbpWHURiKa320EH-64" value="" style="endArrow=classic;html=1;rounded=0;fontSize=12;startSize=8;endSize=8;curved=1;entryX=0.333;entryY=0.888;entryDx=0;entryDy=0;entryPerimeter=0;exitX=1;exitY=0;exitDx=0;exitDy=0;" parent="25p_WsbpWHURiKa320EH-5" source="25p_WsbpWHURiKa320EH-48" target="25p_WsbpWHURiKa320EH-52" edge="1">
          <mxGeometry width="50" height="50" relative="1" as="geometry">
            <mxPoint x="220" y="360" as="sourcePoint" />
            <mxPoint x="270" y="310" as="targetPoint" />
          </mxGeometry>
        </mxCell>
        <mxCell id="25p_WsbpWHURiKa320EH-67" value="" style="endArrow=classic;html=1;rounded=0;fontSize=12;startSize=8;endSize=8;curved=1;entryX=0.5;entryY=1;entryDx=0;entryDy=0;exitX=0.5;exitY=0;exitDx=0;exitDy=0;" parent="25p_WsbpWHURiKa320EH-5" source="25p_WsbpWHURiKa320EH-54" target="25p_WsbpWHURiKa320EH-55" edge="1">
          <mxGeometry width="50" height="50" relative="1" as="geometry">
            <mxPoint x="470" y="380" as="sourcePoint" />
            <mxPoint x="520" y="330" as="targetPoint" />
          </mxGeometry>
        </mxCell>
        <mxCell id="25p_WsbpWHURiKa320EH-69" value="" style="endArrow=none;dashed=1;html=1;rounded=0;fontSize=12;startSize=8;endSize=8;curved=1;exitX=0.936;exitY=0.762;exitDx=0;exitDy=0;startArrow=blockThin;startFill=1;entryX=0.5;entryY=0;entryDx=0;entryDy=0;exitPerimeter=0;" parent="25p_WsbpWHURiKa320EH-5" source="25p_WsbpWHURiKa320EH-49" target="25p_WsbpWHURiKa320EH-57" edge="1">
          <mxGeometry width="50" height="50" relative="1" as="geometry">
            <mxPoint x="560" y="650" as="sourcePoint" />
            <mxPoint x="610" y="600" as="targetPoint" />
          </mxGeometry>
        </mxCell>
        <mxCell id="25p_WsbpWHURiKa320EH-72" value="“extend”" style="edgeLabel;html=1;align=center;verticalAlign=middle;resizable=0;points=[];fontSize=16;" parent="25p_WsbpWHURiKa320EH-69" vertex="1" connectable="0">
          <mxGeometry x="-0.0012" y="5" relative="1" as="geometry">
            <mxPoint as="offset" />
          </mxGeometry>
        </mxCell>
        <mxCell id="25p_WsbpWHURiKa320EH-70" value="" style="endArrow=classic;html=1;rounded=0;fontSize=12;startSize=8;endSize=8;curved=1;entryX=0.5;entryY=0;entryDx=0;entryDy=0;exitX=0.5;exitY=1;exitDx=0;exitDy=0;" parent="25p_WsbpWHURiKa320EH-5" source="25p_WsbpWHURiKa320EH-54" target="25p_WsbpWHURiKa320EH-56" edge="1">
          <mxGeometry width="50" height="50" relative="1" as="geometry">
            <mxPoint x="500" y="510" as="sourcePoint" />
            <mxPoint x="550" y="460" as="targetPoint" />
          </mxGeometry>
        </mxCell>
        <mxCell id="25p_WsbpWHURiKa320EH-71" value="" style="endArrow=none;dashed=1;html=1;rounded=0;fontSize=12;startSize=8;endSize=8;curved=1;startArrow=classic;startFill=1;entryX=0;entryY=0.5;entryDx=0;entryDy=0;exitX=1;exitY=0.625;exitDx=0;exitDy=0;exitPerimeter=0;" parent="25p_WsbpWHURiKa320EH-5" source="25p_WsbpWHURiKa320EH-48" target="25p_WsbpWHURiKa320EH-56" edge="1">
          <mxGeometry width="50" height="50" relative="1" as="geometry">
            <mxPoint x="200" y="330" as="sourcePoint" />
            <mxPoint x="190" y="330" as="targetPoint" />
          </mxGeometry>
        </mxCell>
        <mxCell id="25p_WsbpWHURiKa320EH-73" value="“extend”" style="edgeLabel;html=1;align=center;verticalAlign=middle;resizable=0;points=[];fontSize=16;" parent="25p_WsbpWHURiKa320EH-71" vertex="1" connectable="0">
          <mxGeometry x="-0.3943" y="5" relative="1" as="geometry">
            <mxPoint as="offset" />
          </mxGeometry>
        </mxCell>
        <mxCell id="Qu9oQcRNyt_EFON5Fd7M-2" value="" style="endArrow=classic;html=1;rounded=0;exitX=0.5;exitY=0;exitDx=0;exitDy=0;entryX=0.5;entryY=1;entryDx=0;entryDy=0;dashed=1;" parent="25p_WsbpWHURiKa320EH-5" source="25p_WsbpWHURiKa320EH-57" target="25p_WsbpWHURiKa320EH-56" edge="1">
          <mxGeometry width="50" height="50" relative="1" as="geometry">
            <mxPoint x="425" y="492.5" as="sourcePoint" />
            <mxPoint x="725" y="582.5" as="targetPoint" />
          </mxGeometry>
        </mxCell>
        <mxCell id="Qu9oQcRNyt_EFON5Fd7M-4" value="&quot;extend&quot;" style="edgeLabel;html=1;align=center;verticalAlign=middle;resizable=0;points=[];fontSize=16;" parent="Qu9oQcRNyt_EFON5Fd7M-2" vertex="1" connectable="0">
          <mxGeometry x="-0.1593" y="-3" relative="1" as="geometry">
            <mxPoint y="1" as="offset" />
          </mxGeometry>
        </mxCell>
        <mxCell id="Qu9oQcRNyt_EFON5Fd7M-41" value="" style="endArrow=none;dashed=1;html=1;rounded=0;" parent="25p_WsbpWHURiKa320EH-5" edge="1">
          <mxGeometry width="50" height="50" relative="1" as="geometry">
            <mxPoint x="545" y="312.5" as="sourcePoint" />
            <mxPoint x="525" y="392.5" as="targetPoint" />
          </mxGeometry>
        </mxCell>
        <mxCell id="25p_WsbpWHURiKa320EH-12" value="View/edit records" style="html=1;overflow=block;blockSpacing=1;whiteSpace=wrap;fontSize=16.7;fontColor=#3a414a;spacing=3.8;strokeColor=#3a414a;strokeOpacity=100;fillOpacity=0;rounded=1;absoluteArcSize=1;arcSize=9;fillColor=#000000;strokeWidth=0.8;lucidId=YAnCTzveyhfe;" parent="25p_WsbpWHURiKa320EH-79" vertex="1">
          <mxGeometry x="330" width="150" height="30" as="geometry" />
        </mxCell>
        <mxCell id="25p_WsbpWHURiKa320EH-58" value="" style="endArrow=classic;html=1;rounded=0;fontSize=12;startSize=8;endSize=8;curved=1;exitX=0.5;exitY=0.688;exitDx=0;exitDy=0;exitPerimeter=0;entryX=0;entryY=0.5;entryDx=0;entryDy=0;" parent="25p_WsbpWHURiKa320EH-79" source="25p_WsbpWHURiKa320EH-47" target="25p_WsbpWHURiKa320EH-48" edge="1">
          <mxGeometry width="50" height="50" relative="1" as="geometry">
            <mxPoint x="210" y="490" as="sourcePoint" />
            <mxPoint x="260" y="440" as="targetPoint" />
          </mxGeometry>
        </mxCell>
        <mxCell id="naNYfocV4EcByCn_tp5l-2" value="Scrolling shows more records" style="rounded=0;whiteSpace=wrap;html=1;" parent="25p_WsbpWHURiKa320EH-79" vertex="1">
          <mxGeometry x="15" y="482.5" width="120" height="60" as="geometry" />
        </mxCell>
        <mxCell id="naNYfocV4EcByCn_tp5l-7" value="automatic saving" style="rounded=0;whiteSpace=wrap;html=1;" parent="25p_WsbpWHURiKa320EH-79" vertex="1">
          <mxGeometry x="450" y="670" width="120" height="60" as="geometry" />
        </mxCell>
        <mxCell id="Qu9oQcRNyt_EFON5Fd7M-40" value="Changed data does not changes" style="rounded=0;whiteSpace=wrap;html=1;" parent="25p_WsbpWHURiKa320EH-79" vertex="1">
          <mxGeometry x="665" y="192.5" width="120" height="60" as="geometry" />
        </mxCell>
        <mxCell id="25p_WsbpWHURiKa320EH-53" value="Edit records" style="ellipse;whiteSpace=wrap;html=1;fontSize=16;" parent="25p_WsbpWHURiKa320EH-79" vertex="1">
          <mxGeometry x="385" y="272.5" width="120" height="80" as="geometry" />
        </mxCell>
        <mxCell id="25p_WsbpWHURiKa320EH-65" value="" style="endArrow=classic;html=1;rounded=0;fontSize=12;startSize=8;endSize=8;curved=1;entryX=0;entryY=0.5;entryDx=0;entryDy=0;exitX=1;exitY=0.5;exitDx=0;exitDy=0;" parent="25p_WsbpWHURiKa320EH-79" source="25p_WsbpWHURiKa320EH-48" target="25p_WsbpWHURiKa320EH-53" edge="1">
          <mxGeometry width="50" height="50" relative="1" as="geometry">
            <mxPoint x="220" y="390" as="sourcePoint" />
            <mxPoint x="270" y="340" as="targetPoint" />
          </mxGeometry>
        </mxCell>
        <mxCell id="25p_WsbpWHURiKa320EH-66" value="" style="endArrow=classic;html=1;rounded=0;fontSize=12;startSize=8;endSize=8;curved=1;entryX=0;entryY=0;entryDx=0;entryDy=0;" parent="25p_WsbpWHURiKa320EH-79" source="25p_WsbpWHURiKa320EH-53" target="25p_WsbpWHURiKa320EH-54" edge="1">
          <mxGeometry width="50" height="50" relative="1" as="geometry">
            <mxPoint x="350" y="390" as="sourcePoint" />
            <mxPoint x="400" y="340" as="targetPoint" />
          </mxGeometry>
        </mxCell>
        <mxCell id="25p_WsbpWHURiKa320EH-68" value="" style="endArrow=classic;html=1;rounded=0;fontSize=12;startSize=8;endSize=8;curved=1;entryX=1;entryY=0;entryDx=0;entryDy=0;exitX=0;exitY=1;exitDx=0;exitDy=0;" parent="25p_WsbpWHURiKa320EH-79" source="25p_WsbpWHURiKa320EH-55" target="25p_WsbpWHURiKa320EH-53" edge="1">
          <mxGeometry width="50" height="50" relative="1" as="geometry">
            <mxPoint x="470" y="410" as="sourcePoint" />
            <mxPoint x="520" y="360" as="targetPoint" />
          </mxGeometry>
        </mxCell>
        <mxCell id="Qu9oQcRNyt_EFON5Fd7M-43" value="Can not edit id" style="rounded=0;whiteSpace=wrap;html=1;" parent="25p_WsbpWHURiKa320EH-79" vertex="1">
          <mxGeometry x="465" y="422.5" width="120" height="60" as="geometry" />
        </mxCell>
        <mxCell id="naNYfocV4EcByCn_tp5l-1" value="" style="endArrow=none;dashed=1;html=1;dashPattern=1 3;strokeWidth=2;rounded=0;" parent="25p_WsbpWHURiKa320EH-79" edge="1">
          <mxGeometry width="50" height="50" relative="1" as="geometry">
            <mxPoint x="105" y="482.5" as="sourcePoint" />
            <mxPoint x="135" y="442.5" as="targetPoint" />
          </mxGeometry>
        </mxCell>
        <mxCell id="25p_WsbpWHURiKa320EH-80" value="Admin" style="shape=umlActor;verticalLabelPosition=bottom;verticalAlign=top;html=1;outlineConnect=0;fontSize=16;" parent="1" vertex="1">
          <mxGeometry x="2320" y="2000" width="100" height="160" as="geometry" />
        </mxCell>
        <mxCell id="naNYfocV4EcByCn_tp5l-6" value="" style="endArrow=none;dashed=1;html=1;rounded=0;" parent="1" target="naNYfocV4EcByCn_tp5l-7" edge="1">
          <mxGeometry width="50" height="50" relative="1" as="geometry">
            <mxPoint x="2070" y="2400" as="sourcePoint" />
            <mxPoint x="1940" y="2200" as="targetPoint" />
            <Array as="points">
              <mxPoint x="2050" y="2410" />
            </Array>
          </mxGeometry>
        </mxCell>
        <mxCell id="naNYfocV4EcByCn_tp5l-19" value="" style="endArrow=classic;html=1;rounded=0;entryX=0;entryY=0.5;entryDx=0;entryDy=0;exitX=0.5;exitY=0.5;exitDx=0;exitDy=0;exitPerimeter=0;" parent="1" source="25p_WsbpWHURiKa320EH-80" target="25p_WsbpWHURiKa320EH-81" edge="1">
          <mxGeometry width="50" height="50" relative="1" as="geometry">
            <mxPoint x="2360" y="2250" as="sourcePoint" />
            <mxPoint x="2410" y="2200" as="targetPoint" />
          </mxGeometry>
        </mxCell>
        <mxCell id="naNYfocV4EcByCn_tp5l-46" value="" style="endArrow=none;dashed=1;html=1;rounded=0;exitX=0.668;exitY=-0.067;exitDx=0;exitDy=0;exitPerimeter=0;" parent="1" source="naNYfocV4EcByCn_tp5l-45" edge="1">
          <mxGeometry width="50" height="50" relative="1" as="geometry">
            <mxPoint x="2400" y="2450" as="sourcePoint" />
            <mxPoint x="2580" y="2170" as="targetPoint" />
          </mxGeometry>
        </mxCell>
        <mxCell id="naNYfocV4EcByCn_tp5l-47" value="" style="endArrow=none;dashed=1;html=1;rounded=0;entryX=1;entryY=1;entryDx=0;entryDy=0;" parent="1" target="naNYfocV4EcByCn_tp5l-44" edge="1">
          <mxGeometry width="50" height="50" relative="1" as="geometry">
            <mxPoint x="3100" y="2370" as="sourcePoint" />
            <mxPoint x="3150" y="2320" as="targetPoint" />
          </mxGeometry>
        </mxCell>
        <mxCell id="7J8eGlP3hCwe24i19LiL-2" value="Use Case Name" style="rounded=0;whiteSpace=wrap;html=1;fillColor=none;" parent="1" vertex="1">
          <mxGeometry x="1425" y="860" width="100" height="20" as="geometry" />
        </mxCell>
        <mxCell id="7J8eGlP3hCwe24i19LiL-3" value="Actors" style="rounded=0;whiteSpace=wrap;html=1;fillColor=none;" parent="1" vertex="1">
          <mxGeometry x="1425" y="880" width="100" height="20" as="geometry" />
        </mxCell>
        <mxCell id="7J8eGlP3hCwe24i19LiL-4" value="Help Center" style="rounded=0;whiteSpace=wrap;html=1;fillColor=none;" parent="1" vertex="1">
          <mxGeometry x="1525" y="860" width="380" height="20" as="geometry" />
        </mxCell>
        <mxCell id="7J8eGlP3hCwe24i19LiL-5" value="Consultant" style="rounded=0;whiteSpace=wrap;html=1;fillColor=none;" parent="1" vertex="1">
          <mxGeometry x="1525" y="880" width="380" height="20" as="geometry" />
        </mxCell>
        <mxCell id="7J8eGlP3hCwe24i19LiL-6" value="Flow of Events" style="rounded=0;whiteSpace=wrap;html=1;fillColor=none;" parent="1" vertex="1">
          <mxGeometry x="1425" y="900" width="100" height="80" as="geometry" />
        </mxCell>
        <mxCell id="7J8eGlP3hCwe24i19LiL-7" value="1. User clicks on the &quot;Help&quot; button&lt;br&gt;2. User enters details&lt;br&gt;3. Program stores it in the database&lt;br&gt;4. Confirmation message displayed" style="rounded=0;whiteSpace=wrap;html=1;fillColor=none;" parent="1" vertex="1">
          <mxGeometry x="1525" y="900" width="380" height="80" as="geometry" />
        </mxCell>
        <mxCell id="7J8eGlP3hCwe24i19LiL-8" value="Alternate Flows" style="rounded=0;whiteSpace=wrap;html=1;fillColor=none;" parent="1" vertex="1">
          <mxGeometry x="1425" y="980" width="100" height="80" as="geometry" />
        </mxCell>
        <mxCell id="7J8eGlP3hCwe24i19LiL-9" value="2a. Message displays: &quot;Message is too long, please make it shorter&#39;&quot;&lt;br&gt;" style="rounded=0;whiteSpace=wrap;html=1;fillColor=none;" parent="1" vertex="1">
          <mxGeometry x="1525" y="980" width="380" height="80" as="geometry" />
        </mxCell>
        <mxCell id="7J8eGlP3hCwe24i19LiL-10" value="Entry Conditions" style="rounded=0;whiteSpace=wrap;html=1;fillColor=none;" parent="1" vertex="1">
          <mxGeometry x="1425" y="1060" width="100" height="20" as="geometry" />
        </mxCell>
        <mxCell id="7J8eGlP3hCwe24i19LiL-11" value="User has a problem during usage of the application" style="rounded=0;whiteSpace=wrap;html=1;fillColor=none;" parent="1" vertex="1">
          <mxGeometry x="1525" y="1060" width="380" height="20" as="geometry" />
        </mxCell>
        <mxCell id="7J8eGlP3hCwe24i19LiL-12" value="Exit conditions" style="rounded=0;whiteSpace=wrap;html=1;fillColor=none;" parent="1" vertex="1">
          <mxGeometry x="1425" y="1080" width="100" height="20" as="geometry" />
        </mxCell>
        <mxCell id="7J8eGlP3hCwe24i19LiL-13" value="User either sends the message successfully or cancels the process" style="rounded=0;whiteSpace=wrap;html=1;fillColor=none;" parent="1" vertex="1">
          <mxGeometry x="1525" y="1080" width="380" height="20" as="geometry" />
        </mxCell>
        <mxCell id="7J8eGlP3hCwe24i19LiL-14" value="Use Case Name" style="rounded=0;whiteSpace=wrap;html=1;fillColor=none;" parent="1" vertex="1">
          <mxGeometry x="1425" y="1140" width="100" height="20" as="geometry" />
        </mxCell>
        <mxCell id="7J8eGlP3hCwe24i19LiL-15" value="Actors" style="rounded=0;whiteSpace=wrap;html=1;fillColor=none;" parent="1" vertex="1">
          <mxGeometry x="1425" y="1160" width="100" height="20" as="geometry" />
        </mxCell>
        <mxCell id="7J8eGlP3hCwe24i19LiL-16" value="Help Center" style="rounded=0;whiteSpace=wrap;html=1;fillColor=none;" parent="1" vertex="1">
          <mxGeometry x="1525" y="1140" width="380" height="20" as="geometry" />
        </mxCell>
        <mxCell id="7J8eGlP3hCwe24i19LiL-17" value="Administrator" style="rounded=0;whiteSpace=wrap;html=1;fillColor=none;" parent="1" vertex="1">
          <mxGeometry x="1525" y="1160" width="380" height="20" as="geometry" />
        </mxCell>
        <mxCell id="7J8eGlP3hCwe24i19LiL-18" value="Flow of Events" style="rounded=0;whiteSpace=wrap;html=1;fillColor=none;" parent="1" vertex="1">
          <mxGeometry x="1425" y="1180" width="100" height="80" as="geometry" />
        </mxCell>
        <mxCell id="7J8eGlP3hCwe24i19LiL-19" value="1. User clicks on the &quot;View Help Requests&quot; button&amp;nbsp;&lt;br&gt;2. User chooses how to filer help requests&lt;br&gt;3. The program filters and sorts requests based on the choise of the user&amp;nbsp;&lt;br&gt;4.User changes the status of the request &lt;br&gt;5. The program &amp;nbsp;updates&amp;nbsp;database" style="rounded=0;whiteSpace=wrap;html=1;fillColor=none;" parent="1" vertex="1">
          <mxGeometry x="1525" y="1180" width="380" height="80" as="geometry" />
        </mxCell>
        <mxCell id="7J8eGlP3hCwe24i19LiL-20" value="Alternate Flows" style="rounded=0;whiteSpace=wrap;html=1;fillColor=none;" parent="1" vertex="1">
          <mxGeometry x="1425" y="1260" width="100" height="80" as="geometry" />
        </mxCell>
        <mxCell id="7J8eGlP3hCwe24i19LiL-21" value="3a. User chooses to delete a request&lt;br&gt;" style="rounded=0;whiteSpace=wrap;html=1;fillColor=none;" parent="1" vertex="1">
          <mxGeometry x="1525" y="1260" width="380" height="80" as="geometry" />
        </mxCell>
        <mxCell id="7J8eGlP3hCwe24i19LiL-22" value="Entry Conditions" style="rounded=0;whiteSpace=wrap;html=1;fillColor=none;" parent="1" vertex="1">
          <mxGeometry x="1425" y="1340" width="100" height="20" as="geometry" />
        </mxCell>
        <mxCell id="7J8eGlP3hCwe24i19LiL-23" value="User wants to check and edit help requests&amp;nbsp;" style="rounded=0;whiteSpace=wrap;html=1;fillColor=none;" parent="1" vertex="1">
          <mxGeometry x="1525" y="1340" width="380" height="20" as="geometry" />
        </mxCell>
        <mxCell id="7J8eGlP3hCwe24i19LiL-24" value="Exit conditions" style="rounded=0;whiteSpace=wrap;html=1;fillColor=none;" parent="1" vertex="1">
          <mxGeometry x="1425" y="1360" width="100" height="20" as="geometry" />
        </mxCell>
        <mxCell id="7J8eGlP3hCwe24i19LiL-25" value="User either resolve issues successfully or cancels the process" style="rounded=0;whiteSpace=wrap;html=1;fillColor=none;" parent="1" vertex="1">
          <mxGeometry x="1525" y="1360" width="380" height="20" as="geometry" />
        </mxCell>
        <mxCell id="4DT83KVUb2VvOl7qxICx-1" value="Use Case Name" style="rounded=0;whiteSpace=wrap;html=1;fillColor=none;" parent="1" vertex="1">
          <mxGeometry x="2685" y="880" width="100" height="20" as="geometry" />
        </mxCell>
        <mxCell id="4DT83KVUb2VvOl7qxICx-2" value="Actors" style="rounded=0;whiteSpace=wrap;html=1;fillColor=none;" parent="1" vertex="1">
          <mxGeometry x="2685" y="900" width="100" height="20" as="geometry" />
        </mxCell>
        <mxCell id="4DT83KVUb2VvOl7qxICx-3" value="Search" style="rounded=0;whiteSpace=wrap;html=1;fillColor=none;" parent="1" vertex="1">
          <mxGeometry x="2785" y="880" width="380" height="20" as="geometry" />
        </mxCell>
        <mxCell id="4DT83KVUb2VvOl7qxICx-5" value="Flow of Events" style="rounded=0;whiteSpace=wrap;html=1;fillColor=none;" parent="1" vertex="1">
          <mxGeometry x="2685" y="920" width="100" height="80" as="geometry" />
        </mxCell>
        <mxCell id="4DT83KVUb2VvOl7qxICx-6" value="&amp;nbsp;1. User enters details into the search bar&lt;br&gt;2. User clicks the “Search” button &lt;br&gt;3. Search is successful &lt;br&gt;4. The program displays the search results&amp;nbsp;" style="rounded=0;whiteSpace=wrap;html=1;fillColor=none;" parent="1" vertex="1">
          <mxGeometry x="2785" y="920" width="380" height="80" as="geometry" />
        </mxCell>
        <mxCell id="4DT83KVUb2VvOl7qxICx-7" value="Alternate Flows" style="rounded=0;whiteSpace=wrap;html=1;fillColor=none;" parent="1" vertex="1">
          <mxGeometry x="2685" y="1000" width="100" height="80" as="geometry" />
        </mxCell>
        <mxCell id="4DT83KVUb2VvOl7qxICx-8" value="Entry Conditions" style="rounded=0;whiteSpace=wrap;html=1;fillColor=none;" parent="1" vertex="1">
          <mxGeometry x="2685" y="1080" width="100" height="20" as="geometry" />
        </mxCell>
        <mxCell id="4DT83KVUb2VvOl7qxICx-9" value="User successfully logged into the application" style="rounded=0;whiteSpace=wrap;html=1;fillColor=none;" parent="1" vertex="1">
          <mxGeometry x="2785" y="1080" width="380" height="20" as="geometry" />
        </mxCell>
        <mxCell id="4DT83KVUb2VvOl7qxICx-10" value="Exit conditions" style="rounded=0;whiteSpace=wrap;html=1;fillColor=none;" parent="1" vertex="1">
          <mxGeometry x="2685" y="1100" width="100" height="20" as="geometry" />
        </mxCell>
        <mxCell id="4DT83KVUb2VvOl7qxICx-11" value="User logs out from the application" style="rounded=0;whiteSpace=wrap;html=1;fillColor=none;" parent="1" vertex="1">
          <mxGeometry x="2785" y="1100" width="380" height="20" as="geometry" />
        </mxCell>
        <mxCell id="4DT83KVUb2VvOl7qxICx-47" value="3a. Message displays: &quot;No results found&#39;&quot;" style="rounded=0;whiteSpace=wrap;html=1;fillColor=none;" parent="1" vertex="1">
          <mxGeometry x="2785" y="1000" width="380" height="80" as="geometry" />
        </mxCell>
        <mxCell id="4DT83KVUb2VvOl7qxICx-4" value="Consultant/ Admin" style="rounded=0;whiteSpace=wrap;html=1;fillColor=none;" parent="1" vertex="1">
          <mxGeometry x="2785" y="900" width="380" height="20" as="geometry" />
        </mxCell>
        <mxCell id="Qu9oQcRNyt_EFON5Fd7M-7" value="Use Case Name" style="rounded=0;whiteSpace=wrap;html=1;fillColor=none;" parent="1" vertex="1">
          <mxGeometry x="414" y="2500" width="100" height="20" as="geometry" />
        </mxCell>
        <mxCell id="Qu9oQcRNyt_EFON5Fd7M-8" value="Actors" style="rounded=0;whiteSpace=wrap;html=1;fillColor=none;" parent="1" vertex="1">
          <mxGeometry x="414" y="2520" width="100" height="20" as="geometry" />
        </mxCell>
        <mxCell id="Qu9oQcRNyt_EFON5Fd7M-9" value="User tab" style="rounded=0;whiteSpace=wrap;html=1;fillColor=none;" parent="1" vertex="1">
          <mxGeometry x="514" y="2500" width="380" height="20" as="geometry" />
        </mxCell>
        <mxCell id="Qu9oQcRNyt_EFON5Fd7M-10" value="Consultant and Admins" style="rounded=0;whiteSpace=wrap;html=1;fillColor=none;" parent="1" vertex="1">
          <mxGeometry x="514" y="2520" width="380" height="20" as="geometry" />
        </mxCell>
        <mxCell id="Qu9oQcRNyt_EFON5Fd7M-11" value="Flow of Events" style="rounded=0;whiteSpace=wrap;html=1;fillColor=none;" parent="1" vertex="1">
          <mxGeometry x="414" y="2540" width="100" height="100" as="geometry" />
        </mxCell>
        <mxCell id="Qu9oQcRNyt_EFON5Fd7M-12" value="1. Open User tab&lt;br&gt;2. User click on back button&lt;br&gt;3. Read info about user&lt;br&gt;4. Change existing info&lt;br&gt;5. Write additional info&lt;br&gt;6. Data was changed" style="rounded=0;whiteSpace=wrap;html=1;fillColor=none;" parent="1" vertex="1">
          <mxGeometry x="514" y="2540" width="380" height="100" as="geometry" />
        </mxCell>
        <mxCell id="Qu9oQcRNyt_EFON5Fd7M-13" value="Alternate Flows" style="rounded=0;whiteSpace=wrap;html=1;fillColor=none;" parent="1" vertex="1">
          <mxGeometry x="414" y="2640" width="100" height="80" as="geometry" />
        </mxCell>
        <mxCell id="Qu9oQcRNyt_EFON5Fd7M-14" value="4.1. Error message &quot;Impossible to change&lt;br&gt;6.1.Changed info shows for reading" style="rounded=0;whiteSpace=wrap;html=1;fillColor=none;" parent="1" vertex="1">
          <mxGeometry x="514" y="2640" width="380" height="80" as="geometry" />
        </mxCell>
        <mxCell id="Qu9oQcRNyt_EFON5Fd7M-15" value="Entry Conditions" style="rounded=0;whiteSpace=wrap;html=1;fillColor=none;" parent="1" vertex="1">
          <mxGeometry x="414" y="2720" width="100" height="20" as="geometry" />
        </mxCell>
        <mxCell id="Qu9oQcRNyt_EFON5Fd7M-16" value="User have some authenticated info" style="rounded=0;whiteSpace=wrap;html=1;fillColor=none;" parent="1" vertex="1">
          <mxGeometry x="514" y="2720" width="380" height="20" as="geometry" />
        </mxCell>
        <mxCell id="Qu9oQcRNyt_EFON5Fd7M-17" value="Exit conditions" style="rounded=0;whiteSpace=wrap;html=1;fillColor=none;" parent="1" vertex="1">
          <mxGeometry x="414" y="2740" width="100" height="20" as="geometry" />
        </mxCell>
        <mxCell id="Qu9oQcRNyt_EFON5Fd7M-18" value="User can go back without changes or can cancel their changes" style="rounded=0;whiteSpace=wrap;html=1;fillColor=none;" parent="1" vertex="1">
          <mxGeometry x="514" y="2740" width="380" height="20" as="geometry" />
        </mxCell>
        <mxCell id="25p_WsbpWHURiKa320EH-11" value="User tab" style="html=1;overflow=block;blockSpacing=1;whiteSpace=wrap;fontSize=16.7;fontColor=#3a414a;spacing=3.8;strokeColor=#3a414a;strokeOpacity=100;fillOpacity=0;rounded=1;absoluteArcSize=1;arcSize=9;fillColor=#000000;strokeWidth=0.8;lucidId=YAnCTzveyhfe;" parent="1" vertex="1">
          <mxGeometry x="602" y="1660" width="135" height="30" as="geometry" />
        </mxCell>
        <mxCell id="Qu9oQcRNyt_EFON5Fd7M-24" value="Use Case Name" style="rounded=0;whiteSpace=wrap;html=1;fillColor=none;" parent="1" vertex="1">
          <mxGeometry x="1695" y="2550" width="100" height="20" as="geometry" />
        </mxCell>
        <mxCell id="Qu9oQcRNyt_EFON5Fd7M-25" value="Actors" style="rounded=0;whiteSpace=wrap;html=1;fillColor=none;" parent="1" vertex="1">
          <mxGeometry x="1695" y="2570" width="100" height="20" as="geometry" />
        </mxCell>
        <mxCell id="Qu9oQcRNyt_EFON5Fd7M-26" value="Records" style="rounded=0;whiteSpace=wrap;html=1;fillColor=none;" parent="1" vertex="1">
          <mxGeometry x="1795" y="2550" width="380" height="20" as="geometry" />
        </mxCell>
        <mxCell id="Qu9oQcRNyt_EFON5Fd7M-27" value="Admins" style="rounded=0;whiteSpace=wrap;html=1;fillColor=none;" parent="1" vertex="1">
          <mxGeometry x="1795" y="2570" width="380" height="20" as="geometry" />
        </mxCell>
        <mxCell id="Qu9oQcRNyt_EFON5Fd7M-28" value="Flow of Events" style="rounded=0;whiteSpace=wrap;html=1;fillColor=none;" parent="1" vertex="1">
          <mxGeometry x="1695" y="2590" width="100" height="140" as="geometry" />
        </mxCell>
        <mxCell id="Qu9oQcRNyt_EFON5Fd7M-29" value="1. Open records&lt;br&gt;2. Admin can go back to previous stage&lt;br&gt;3. Admin can use User tab&lt;br&gt;4. Admin click on Edit button&lt;br&gt;5. Admin change data&lt;br&gt;6. Cancel changes&lt;br&gt;7.Confirm changes&lt;br&gt;8.Data saved&lt;br&gt;9.Records shows&lt;br&gt;10.Admin can leaf through the layout to see records" style="rounded=0;whiteSpace=wrap;html=1;fillColor=none;" parent="1" vertex="1">
          <mxGeometry x="1795" y="2590" width="380" height="140" as="geometry" />
        </mxCell>
        <mxCell id="Qu9oQcRNyt_EFON5Fd7M-30" value="Alternate Flows" style="rounded=0;whiteSpace=wrap;html=1;fillColor=none;" parent="1" vertex="1">
          <mxGeometry x="1695" y="2730" width="100" height="80" as="geometry" />
        </mxCell>
        <mxCell id="Qu9oQcRNyt_EFON5Fd7M-31" value="5.1. Admin not allowed to change some data&lt;br&gt;6.1. Changed data is not saved&lt;br&gt;8.1.Data changes automatically and can be shown for reading&lt;br&gt;10.1.Admin scroll and can edit another records" style="rounded=0;whiteSpace=wrap;html=1;fillColor=none;" parent="1" vertex="1">
          <mxGeometry x="1795" y="2730" width="380" height="80" as="geometry" />
        </mxCell>
        <mxCell id="Qu9oQcRNyt_EFON5Fd7M-32" value="Entry Conditions" style="rounded=0;whiteSpace=wrap;html=1;fillColor=none;" parent="1" vertex="1">
          <mxGeometry x="1695" y="2810" width="100" height="20" as="geometry" />
        </mxCell>
        <mxCell id="Qu9oQcRNyt_EFON5Fd7M-33" value="Admin see records" style="rounded=0;whiteSpace=wrap;html=1;fillColor=none;" parent="1" vertex="1">
          <mxGeometry x="1795" y="2810" width="380" height="20" as="geometry" />
        </mxCell>
        <mxCell id="Qu9oQcRNyt_EFON5Fd7M-34" value="Exit conditions" style="rounded=0;whiteSpace=wrap;html=1;fillColor=none;" parent="1" vertex="1">
          <mxGeometry x="1695" y="2830" width="100" height="20" as="geometry" />
        </mxCell>
        <mxCell id="Qu9oQcRNyt_EFON5Fd7M-35" value="Admin can go back without editing or can go back with changed data" style="rounded=0;whiteSpace=wrap;html=1;fillColor=none;" parent="1" vertex="1">
          <mxGeometry x="1795" y="2830" width="380" height="20" as="geometry" />
        </mxCell>
        <mxCell id="Qu9oQcRNyt_EFON5Fd7M-38" value="" style="endArrow=none;dashed=1;html=1;rounded=0;" parent="1" edge="1">
          <mxGeometry width="50" height="50" relative="1" as="geometry">
            <mxPoint x="2110" y="2030" as="sourcePoint" />
            <mxPoint x="2170" y="1980" as="targetPoint" />
          </mxGeometry>
        </mxCell>
        <mxCell id="Qu9oQcRNyt_EFON5Fd7M-45" value="" style="endArrow=none;dashed=1;html=1;rounded=0;entryX=0.5;entryY=0;entryDx=0;entryDy=0;" parent="1" target="Qu9oQcRNyt_EFON5Fd7M-44" edge="1">
          <mxGeometry width="50" height="50" relative="1" as="geometry">
            <mxPoint x="2990" y="2070" as="sourcePoint" />
            <mxPoint x="2900" y="2070" as="targetPoint" />
          </mxGeometry>
        </mxCell>
        <mxCell id="Qu9oQcRNyt_EFON5Fd7M-48" value="Use Case Name" style="rounded=0;whiteSpace=wrap;html=1;fillColor=none;" parent="1" vertex="1">
          <mxGeometry x="2580" y="2560" width="100" height="20" as="geometry" />
        </mxCell>
        <mxCell id="Qu9oQcRNyt_EFON5Fd7M-49" value="Actors" style="rounded=0;whiteSpace=wrap;html=1;fillColor=none;" parent="1" vertex="1">
          <mxGeometry x="2580" y="2580" width="100" height="20" as="geometry" />
        </mxCell>
        <mxCell id="Qu9oQcRNyt_EFON5Fd7M-50" value="Access" style="rounded=0;whiteSpace=wrap;html=1;fillColor=none;" parent="1" vertex="1">
          <mxGeometry x="2680" y="2560" width="380" height="20" as="geometry" />
        </mxCell>
        <mxCell id="Qu9oQcRNyt_EFON5Fd7M-51" value="Admins" style="rounded=0;whiteSpace=wrap;html=1;fillColor=none;" parent="1" vertex="1">
          <mxGeometry x="2680" y="2580" width="380" height="20" as="geometry" />
        </mxCell>
        <mxCell id="Qu9oQcRNyt_EFON5Fd7M-52" value="Flow of Events" style="rounded=0;whiteSpace=wrap;html=1;fillColor=none;" parent="1" vertex="1">
          <mxGeometry x="2580" y="2600" width="100" height="140" as="geometry" />
        </mxCell>
        <mxCell id="Qu9oQcRNyt_EFON5Fd7M-53" value="1. Open access&lt;br&gt;2. Admin can go back to previous stage&lt;br&gt;3. Admin can use User tab&lt;br&gt;4. Admin click on Edit button&lt;br&gt;5. Admin change data&lt;br&gt;6. Cancel changes&lt;br&gt;7.Confirm changes&lt;br&gt;8.Data saved&lt;br&gt;9.Acces shows&lt;br&gt;10.Admin can leaf through the layout to see access" style="rounded=0;whiteSpace=wrap;html=1;fillColor=none;" parent="1" vertex="1">
          <mxGeometry x="2680" y="2600" width="380" height="140" as="geometry" />
        </mxCell>
        <mxCell id="Qu9oQcRNyt_EFON5Fd7M-54" value="Alternate Flows" style="rounded=0;whiteSpace=wrap;html=1;fillColor=none;" parent="1" vertex="1">
          <mxGeometry x="2580" y="2740" width="100" height="80" as="geometry" />
        </mxCell>
        <mxCell id="Qu9oQcRNyt_EFON5Fd7M-55" value="5.1. Admin not allowed to change some data&lt;br&gt;6.1. Changed data is not saved&lt;br&gt;8.1.Data changes automatically and can be shown for reading&lt;br&gt;10.1.Admin scroll and can edit another records" style="rounded=0;whiteSpace=wrap;html=1;fillColor=none;" parent="1" vertex="1">
          <mxGeometry x="2680" y="2740" width="380" height="80" as="geometry" />
        </mxCell>
        <mxCell id="Qu9oQcRNyt_EFON5Fd7M-56" value="Entry Conditions" style="rounded=0;whiteSpace=wrap;html=1;fillColor=none;" parent="1" vertex="1">
          <mxGeometry x="2580" y="2820" width="100" height="20" as="geometry" />
        </mxCell>
        <mxCell id="Qu9oQcRNyt_EFON5Fd7M-57" value="Admin see access" style="rounded=0;whiteSpace=wrap;html=1;fillColor=none;" parent="1" vertex="1">
          <mxGeometry x="2680" y="2820" width="380" height="20" as="geometry" />
        </mxCell>
        <mxCell id="Qu9oQcRNyt_EFON5Fd7M-58" value="Exit conditions" style="rounded=0;whiteSpace=wrap;html=1;fillColor=none;" parent="1" vertex="1">
          <mxGeometry x="2580" y="2840" width="100" height="20" as="geometry" />
        </mxCell>
        <mxCell id="Qu9oQcRNyt_EFON5Fd7M-59" value="Admin can go back without editing or can go back with changed data" style="rounded=0;whiteSpace=wrap;html=1;fillColor=none;" parent="1" vertex="1">
          <mxGeometry x="2680" y="2840" width="380" height="20" as="geometry" />
        </mxCell>
      </root>
    </mxGraphModel>
  </diagram>
</mxfile>
